<svg height="1000" width="707" xmlns="http://www.w3.org/2000/svg"><path d="M0 999.936l0 -904.239l224.595 0l0 64.449l-160.146 0l0 773.388l578.088 0l0 -773.388l-160.146 0l0 -64.449l224.595 0l0 904.239l-706.986 0zm128.898 -128.898l0 -31.248l31.248 0l0 31.248l-31.248 0zm0 -121.086l0 -31.248l31.248 0l0 31.248l-31.248 0zm0 -121.086l0 -31.248l31.248 0l0 31.248l-31.248 0zm0 -121.086l0 -31.248l31.248 0l0 31.248l-31.248 0zm0 -121.086l0 -31.248l31.248 0l0 31.248l-31.248 0zm0 -95.697l0 -93.744l128.898 0l0 -97.65q0 -41.013 27.342 -70.308t68.355 -29.295 69.332 30.271 28.319 69.332q0 56.637 -1.953 97.65l128.898 0l0 93.744l-449.19 0zm95.697 581.994l0 -33.201l353.493 0l0 33.201l-353.493 0zm0 -121.086l0 -33.201l353.493 0l0 33.201l-353.493 0zm0 -121.086l0 -33.201l353.493 0l0 33.201l-353.493 0zm0 -121.086l0 -33.201l353.493 0l0 33.201l-353.493 0zm0 -121.086l0 -33.201l353.493 0l0 33.201l-353.493 0zm97.65 -259.749q0 13.671 8.789 22.46t22.46 8.789 22.46 -8.789 8.789 -22.46 -8.789 -23.436 -22.46 -9.765 -22.46 9.765 -8.789 23.436z"/></svg>