<svg viewBox="0 0 512 512" xmlns="http://www.w3.org/2000/svg"><g fill="none" fill-rule="evenodd"><path d="m1199.04 333.29c-48.944-30.755-110.28-33.911-161.84-9.63-.027-.04-.053-.071-.08-.111-27.383 12.349-60.32 7.977-83.73-13-1.062-.947-2.102-1.902-3.128-2.928l-103.86-103.86c-.009-.009-.102-.053-.084-.084-6.955-7.786-9.843-17.784-8.754-27.525-.022-.018-.062-.013-.08-.022.395-2.137.622-4.324.627-6.581-.004-19.628-15.922-35.541-35.555-35.541-19.633 0-35.55 15.918-35.55 35.55 0 19.624 15.913 35.55 35.546 35.55 2.253 0 4.448-.236 6.586-.635.009.027.022.044.031.067 9.745-1.089 19.948 1.609 27.725 8.563.036-.018.076.076.084.084l104.35 104.35c.853.853 1.551 1.831 2.351 2.724 20.997 23.419 25.285 56.45 12.905 83.84.036.027.044.062.08.089-24.29 51.561-21.15 112.92 9.612 161.86 6.59 10.514 14.411 20.459 23.543 29.6 29.11 29.11 67.75 46.34 105.86 49.726 9.981.871 152.22.387 152.22.387 7.71 0 15.633-3.822 21.09-9.27 5.453-5.448 10.02-14.12 10.02-21.837 0 0-.009-130.88 0-137.76.018-6.875-1.48-16.749-1.604-18.16-3.377-38.11-19.619-72.79-48.731-101.9-9.136-9.128-19.12-16.953-29.627-23.548m9.114 115.33c3.999 19.646 4.19 28.28 4.19 29.596v69.781c0 7.723-3.435 16.766-8.888 22.22-5.453 5.453-14.505 8.888-22.22 8.888h-67.786c-1.306 0-17.22-.187-31.849-4.222-16.375-4.515-31.804-13.38-44.651-26.23-39.856-39.843-39.852-104.79-.004-144.64 39.856-39.847 104.98-39.874 144.83-.027 12.847 12.843 22.983 27.996 26.378 44.633" transform="translate(-767-134)" fill-opacity=".355" fill="#111113"/></g></svg>