<svg width="64" height="64" viewBox="0 0 64 64" fill="none" xmlns="http://www.w3.org/2000/svg">
<g clip-path="url(#clip0_2250_479)">
<rect x="1" y="1" width="62" height="62" rx="13" fill="white" stroke="black" style="fill:white;fill-opacity:1;stroke:black;stroke-opacity:1;" stroke-width="2"/>
<path fill-rule="evenodd" clip-rule="evenodd" d="M18.1402 24.3559C18.6502 23.7219 18.9942 22.8699 18.9022 21.9999C18.1602 22.0359 17.2542 22.4899 16.7302 23.1239C16.2582 23.6679 15.8422 24.5559 15.9502 25.3899C16.7842 25.4619 17.6162 24.9719 18.1422 24.3559H18.1402ZM18.8922 25.5539C17.6822 25.4799 16.6522 26.2399 16.0742 26.2399C15.4962 26.2399 14.6122 25.5899 13.6542 25.6079C12.4082 25.6259 11.2522 26.3279 10.6202 27.4499C9.32022 29.6899 10.2762 33.0159 11.5402 34.8419C12.1562 35.7459 12.8962 36.7399 13.8702 36.7039C14.7902 36.6679 15.1542 36.1079 16.2742 36.1079C17.3942 36.1079 17.7182 36.7039 18.6942 36.6879C19.7042 36.6679 20.3382 35.7819 20.9522 34.8779C21.6562 33.8479 21.9442 32.8539 21.9622 32.7999C21.9442 32.7799 20.0122 32.0399 19.9942 29.8179C19.9742 27.9579 21.5122 27.0719 21.5842 27.0179C20.7162 25.7339 19.3622 25.5899 18.8922 25.5539ZM27.9802 30.1939H30.3942C32.2262 30.1939 33.2682 29.2079 33.2682 27.4979C33.2682 25.7879 32.2262 24.8099 30.4022 24.8099H27.9802V30.1939ZM30.9562 23.0339C33.5882 23.0339 35.4202 24.8479 35.4202 27.4879C35.4202 30.1379 33.5502 31.9599 30.8922 31.9599H27.9782V36.5919H25.8742V23.0339H30.9562ZM42.3302 32.9079V32.1479L39.9902 32.2979C38.6742 32.3819 37.9902 32.8699 37.9902 33.7259C37.9902 34.5519 38.7022 35.0879 39.8202 35.0879C41.2482 35.0879 42.3302 34.1759 42.3302 32.9079ZM35.9402 33.7819C35.9402 32.0439 37.2662 31.0479 39.7082 30.8979L42.3282 30.7379V29.9859C42.3282 28.8859 41.6062 28.2859 40.3182 28.2859C39.2582 28.2859 38.4862 28.8299 38.3262 29.6659H36.4282C36.4862 27.9099 38.1382 26.6319 40.3762 26.6319C42.7802 26.6319 44.3502 27.8919 44.3502 29.8459V36.5919H42.4042V34.9659H42.3582C41.8042 36.0259 40.5822 36.6939 39.2582 36.6939C37.3042 36.6939 35.9402 35.5299 35.9402 33.7819ZM46.1402 40.2199V38.5939C46.2722 38.6119 46.5922 38.6299 46.7602 38.6299C47.6902 38.6299 48.2162 38.2359 48.5362 37.2219L48.7242 36.6219L45.1642 26.7559H47.3622L49.8422 34.7599H49.8902L52.3702 26.7559H54.5102L50.8202 37.1179C49.9742 39.4959 49.0062 40.2759 46.9582 40.2759C46.7982 40.2759 46.2822 40.2559 46.1402 40.2179V40.2199Z" fill="#111111" style="fill:#111111;fill:color(display-p3 0.0667 0.0667 0.0667);fill-opacity:1;"/>
</g>
<defs>
<clipPath id="clip0_2250_479">
<rect width="64" height="64" rx="14" fill="white" style="fill:white;fill-opacity:1;"/>
</clipPath>
</defs>
</svg>
