<?xml version="1.0" encoding="UTF-8" standalone="no"?>
<svg
   id="logo"
   viewBox="0 0 612.83907 421.92256"
   version="1.1"
   sodipodi:docname="bancontact.svg"
   width="796.69141"
   height="548.49976"
   inkscape:version="1.4 (e7c3feb100, 2024-10-09)"
   xmlns:inkscape="http://www.inkscape.org/namespaces/inkscape"
   xmlns:sodipodi="http://sodipodi.sourceforge.net/DTD/sodipodi-0.dtd"
   xmlns="http://www.w3.org/2000/svg"
   xmlns:svg="http://www.w3.org/2000/svg">
  <sodipodi:namedview
     id="namedview4"
     pagecolor="#ffffff"
     bordercolor="#000000"
     borderopacity="0.25"
     inkscape:showpageshadow="2"
     inkscape:pageopacity="0.0"
     inkscape:pagecheckerboard="0"
     inkscape:deskcolor="#d1d1d1"
     showgrid="false"
     inkscape:zoom="1.4627114"
     inkscape:cx="285.08699"
     inkscape:cy="189.37433"
     inkscape:window-width="1720"
     inkscape:window-height="1353"
     inkscape:window-x="1920"
     inkscape:window-y="0"
     inkscape:window-maximized="0"
     inkscape:current-layer="logo">
    <inkscape:grid
       id="grid4"
       units="px"
       originx="-72.758401"
       originy="-72.75839"
       spacingx="1"
       spacingy="1"
       empcolor="#0099e5"
       empopacity="0.30196078"
       color="#0099e5"
       opacity="0.14902"
       empspacing="5"
       enabled="true"
       visible="false" />
  </sodipodi:namedview>
  <defs
     id="defs4">
    <style
       id="style1">.cls-1{fill:#fff;}.cls-2{fill:#1e3764;}.cls-3{fill:url(#Bancontact_blauw_rgb);}.cls-4{fill:url(#Bancontact_geel_rgb);}</style>
    <linearGradient
       id="Bancontact_blauw_rgb"
       x1="178.26968"
       y1="283.79938"
       x2="362.50961"
       y2="215.36752"
       gradientUnits="userSpaceOnUse"
       gradientTransform="translate(-72.7584,-72.75839)">
      <stop
         offset="0"
         stop-color="#005ab9"
         id="stop1" />
      <stop
         offset="1"
         stop-color="#1e3764"
         id="stop2" />
    </linearGradient>
    <linearGradient
       id="Bancontact_geel_rgb"
       x1="394.42828"
       y1="237.30482"
       x2="590.05286"
       y2="170.56232"
       gradientUnits="userSpaceOnUse"
       gradientTransform="translate(-72.7584,-72.75839)">
      <stop
         offset="0"
         stop-color="#fba900"
         id="stop3" />
      <stop
         offset="1"
         stop-color="#ffd800"
         id="stop4" />
    </linearGradient>
  </defs>
  <path
     id="rounded_white_background"
     class="cls-1"
     d="m 21.09612,0 h 570.64682 a 21.09611,21.09611 0 0 1 21.09611,21.09611 v 379.73031 a 21.09613,21.09613 0 0 1 -21.09613,21.09613 H 21.09612 A 21.09613,21.09613 0 0 1 0,400.82642 V 21.09613 A 21.09613,21.09613 0 0 1 21.09612,0 Z" />
  <path
     id="Bancontact"
     class="cls-2"
     d="m 54.56977,366.10672 v -72.75839 h 22.4512 c 16.31873,0 26.81678,6.13247 26.81678,18.8133 0,7.17195 -3.3261,12.1611 -8.00347,15.07131 6.756,3.1179 10.70573,9.14653 10.70573,17.358 0,14.65593 -10.70573,21.51583 -27.33625,21.51583 z M 69.0175,323.59479 h 10.706 c 6.5481,0 9.35473,-3.22226 9.35473,-9.14652 0,-6.34068 -5.09326,-8.41911 -11.95341,-8.41911 H 69.0175 Z m 0,29.83109 h 8.93884 c 8.73115,0 13.82415,-2.18279 13.82415,-9.04268 0,-6.75605 -4.36531,-9.56242 -12.57673,-9.56242 H 69.0175 Z m 65.54053,13.928 c -14.24,0 -21.412,-6.96374 -21.412,-16.31847 0,-10.29036 8.41936,-16.319 20.89225,-16.42283 a 65.088,65.088 0 0 1 9.25063,0.83178 v -2.49484 c 0,-6.34016 -3.6379,-9.35473 -10.60189,-9.35473 a 36.46647,36.46647 0 0 0 -13.72031,2.49484 l -2.59842,-11.22547 c 4.46942,-1.87126 11.64136,-3.11842 17.98178,-3.11842 15.27925,0 22.86683,8.10757 22.86683,22.13941 v 28.89546 c -4.26145,2.18279 -12.26492,4.57327 -22.65887,4.57327 z m 8.7309,-11.74521 v -11.12163 a 34.90987,34.90987 0 0 0 -7.37964,-0.83178 c -4.78146,0 -8.5232,1.87125 -8.5232,6.75657 0,4.36557 3.11816,6.6522 8.627,6.6522 a 16.27158,16.27158 0 0 0 7.27584,-1.45536 z m 24.02667,10.49805 v -49.78771 a 63.469,63.469 0 0 1 23.49067,-4.57327 c 15.17515,0 23.90631,7.48348 23.90631,21.30763 v 33.05335 H 200.3686 v -32.01388 c 0,-7.17194 -3.3261,-10.498 -9.66652,-10.498 a 21.79963,21.79963 0 0 0 -9.14679,1.87126 v 40.64067 z m 97.52356,-51.24256 -2.70256,11.32931 a 31.66107,31.66107 0 0 0 -11.74521,-2.59868 c -8.4191,0 -12.99262,5.92479 -12.99262,15.69541 0,10.70573 4.78121,16.21463 13.72031,16.21463 a 29.42534,29.42534 0 0 0 11.53726,-2.70253 l 2.28663,11.53752 a 34.98384,34.98384 0 0 1 -14.96747,3.01406 c -17.2541,0 -27.23241,-10.70574 -27.23241,-27.6483 0,-16.83821 9.87447,-27.95984 26.40114,-27.95984 a 40.06388,40.06388 0 0 1 15.69488,3.11842 z m 30.98726,52.48972 c -16.00694,0 -25.98525,-11.12163 -25.98525,-27.856 0,-16.63052 9.97831,-27.75215 25.98525,-27.75215 16.11078,0 25.88114,11.12163 25.88114,27.75215 -5e-5,16.73437 -9.77041,27.856 -25.88119,27.856 z m 0,-11.84905 c 7.37988,0 11.22547,-6.13248 11.22547,-16.00694 0,-9.77063 -3.84559,-15.9031 -11.22547,-15.9031 -7.27579,0 -11.32958,6.13247 -11.32958,15.9031 -5e-5,9.87446 4.05376,16.00694 11.32953,16.00694 z m 34.18173,10.60189 v -49.78771 a 63.469,63.469 0 0 1 23.49067,-4.57327 c 15.17515,0 23.9063,7.48348 23.9063,21.30763 v 33.05335 h -14.34393 v -32.01388 c 0,-7.17194 -3.32611,-10.498 -9.66653,-10.498 a 21.79959,21.79959 0 0 0 -9.14678,1.87126 v 40.64067 z m 79.74559,1.24716 c -12.36879,0 -18.7092,-6.75605 -18.7092,-20.47636 v -22.45091 h -7.0681 V 312.9929 h 7.0681 v -11.53752 l 14.34362,-0.72742 v 12.26494 h 11.53744 v 11.43371 h -11.53749 v 22.24325 c 0,6.02863 2.49484,8.835 7.172,8.835 a 25.20427,25.20427 0 0 0 5.50889,-0.62358 l 0.72768,11.53752 a 39.64728,39.64728 0 0 1 -9.04299,0.93508 z m 36.20489,0 c -14.24,0 -21.412,-6.96374 -21.412,-16.31847 0,-10.29036 8.41937,-16.319 20.89226,-16.42283 a 65.08772,65.08772 0 0 1 9.25062,0.83178 v -2.49484 c 0,-6.34016 -3.63789,-9.35473 -10.60189,-9.35473 a 36.46646,36.46646 0 0 0 -13.7203,2.49484 l -2.59843,-11.22547 c 4.46942,-1.87126 11.64137,-3.11842 17.98179,-3.11842 15.27925,0 22.86683,8.10757 22.86683,22.13941 v 28.89546 c -4.26151,2.18279 -12.26498,4.57327 -22.65891,4.57327 z m 8.73089,-11.74521 v -11.12163 a 34.91021,34.91021 0 0 0 -7.37989,-0.83178 c -4.7812,0 -8.52294,1.87125 -8.52294,6.75657 0,4.36557 3.11816,6.6522 8.62705,6.6522 a 16.27073,16.27073 0 0 0 7.27573,-1.45536 z m 63.00332,-40.74451 -2.70253,11.32931 a 31.661,31.661 0 0 0 -11.7452,-2.59868 c -8.41911,0 -12.99263,5.92479 -12.99263,15.69541 0,10.70573 4.78121,16.21463 13.72031,16.21463 a 29.4253,29.4253 0 0 0 11.53726,-2.70253 l 2.28689,11.53752 a 34.98559,34.98559 0 0 1 -14.96747,3.01406 c -17.25435,0 -27.23267,-10.70574 -27.23267,-27.6483 0,-16.83821 9.87447,-27.95984 26.40089,-27.95984 a 40.06428,40.06428 0 0 1 15.6951,3.11842 z m 31.53635,52.48972 c -12.36879,0 -18.70921,-6.75605 -18.70921,-20.47636 v -22.45091 h -7.0681 V 312.9929 h 7.0681 v -11.53752 l 14.34363,-0.72742 v 12.26494 h 11.53752 v 11.43371 H 544.8636 v 22.24325 c 0,6.02863 2.49484,8.835 7.172,8.835 a 25.20434,25.20434 0 0 0 5.50889,-0.62358 l 0.72768,11.53752 a 39.64728,39.64728 0 0 1 -9.04303,0.93508 z" />
  <path
     id="blue-symbol"
     class="cls-3"
     d="m 154.62088,256.96928 c 75.9,0 113.85,-50.60015 151.80005,-101.2003 H 54.56977 v 101.2003 z"
     style="fill:url(#Bancontact_blauw_rgb)" />
  <path
     id="yellow-symbol"
     class="cls-4"
     d="m 458.22097,54.56868 c -75.9,0 -113.85,50.60015 -151.8,101.2003 H 558.27208 V 54.56868 Z"
     style="fill:url(#Bancontact_geel_rgb)" />
</svg>
