<svg width="64" height="64" viewBox="0 0 64 64" fill="none" xmlns="http://www.w3.org/2000/svg">
<g clip-path="url(#clip0_3503_62)">
<rect width="64" height="64" rx="14" fill="#002D73" style="fill:#002D73;fill:color(display-p3 0.0000 0.1765 0.4510);fill-opacity:1;"/>
<path d="M48.3262 30.3827L33.6057 15.6671C33.1743 15.2397 32.592 15 31.985 15C31.3781 15 30.7957 15.2397 30.3644 15.6671L15.6738 30.3827C15.4603 30.5943 15.2909 30.8462 15.1752 31.1238C15.0596 31.4014 15 31.6992 15 32C15 32.3008 15.0596 32.5986 15.1752 32.8762C15.2909 33.1538 15.4603 33.4057 15.6738 33.6173L30.3744 48.3329C30.8057 48.7603 31.3881 49 31.995 49C32.6019 49 33.1843 48.7603 33.6157 48.3329L48.3262 33.6173C48.5397 33.4057 48.7091 33.1538 48.8248 32.8762C48.9405 32.5986 49 32.3008 49 32C49 31.6992 48.9405 31.4014 48.8248 31.1238C48.7091 30.8462 48.5397 30.5943 48.3262 30.3827ZM38.2931 35.5242C37.9141 38.609 35.6801 40.0966 32.0299 40.0966H24.6398L25.0686 36.6623H32.369C33.3065 36.6623 33.8151 36.0932 33.9348 35.0949C33.9444 34.9919 33.9444 34.8883 33.9348 34.7854H38.3529C38.3529 34.995 38.2931 35.2646 38.2632 35.5242H38.2931ZM41.2851 33.5275H25.3878L25.7667 30.4326H32.8976C33.8949 30.4326 34.2639 29.7038 34.3736 28.8353C34.4833 27.9667 34.3736 27.4176 33.2566 27.4176H26.1357L26.5646 23.8535H33.845C37.9939 23.8535 39.1109 25.6206 38.8317 28.0466C38.7578 28.8953 38.4807 29.7138 38.0238 30.4326H38.4527C38.8489 30.4303 39.2409 30.5133 39.6022 30.676C39.9635 30.8387 40.2856 31.0772 40.5467 31.3755C40.8077 31.6738 41.0017 32.0248 41.1153 32.4047C41.229 32.7846 41.2596 33.1846 41.2053 33.5774L41.2851 33.5275Z" fill="white" style="fill:white;fill-opacity:1;"/>
</g>
<defs>
<clipPath id="clip0_3503_62">
<rect width="64" height="64" rx="14" fill="white" style="fill:white;fill-opacity:1;"/>
</clipPath>
</defs>
</svg>
