<svg width="64" height="64" viewBox="0 0 64 64" fill="none" xmlns="http://www.w3.org/2000/svg">
<g clip-path="url(#clip0_2250_379)">
<path d="M50 0H14C6.26801 0 0 6.26801 0 14V50C0 57.732 6.26801 64 14 64H50C57.732 64 64 57.732 64 50V14C64 6.26801 57.732 0 50 0Z" fill="#D50043" style="fill:#D50043;fill:color(display-p3 0.8353 0.0000 0.2627);fill-opacity:1;"/>
<path fill-rule="evenodd" clip-rule="evenodd" d="M18 22.7182C18 20.1124 20.1046 18 22.7182 18H41.2818C43.8876 18 46 20.1046 46 22.7182V46H22.7182C20.1124 46 18 43.8955 18 41.2818V22.7182ZM24 27.7661V28.2339C24 29.1905 24.794 30 25.7734 30H38.2266C39.2066 30 40 29.2093 40 28.2339V27.7661C40 26.8095 39.206 26 38.2266 26H25.7734C24.7934 26 24 26.7907 24 27.7661ZM24 35.7661V36.2339C24 37.1905 24.794 38 25.7734 38H38.2266C39.2066 38 40 37.2093 40 36.2339V35.7661C40 34.8095 39.206 34 38.2266 34H25.7734C24.7934 34 24 34.7907 24 35.7661Z" fill="white" style="fill:white;fill-opacity:1;"/>
</g>
<defs>
<clipPath id="clip0_2250_379">
<rect width="64" height="64" rx="14" fill="white" style="fill:white;fill-opacity:1;"/>
</clipPath>
</defs>
</svg>
