<svg width="64" height="64" viewBox="0 0 64 64" fill="none" xmlns="http://www.w3.org/2000/svg">
<g clip-path="url(#clip0_2250_408)">
<path d="M50 0H14C6.26801 0 0 6.26801 0 14V50C0 57.732 6.26801 64 14 64H50C57.732 64 64 57.732 64 50V14C64 6.26801 57.732 0 50 0Z" fill="#DE378C" style="fill:#DE378C;fill:color(display-p3 0.8706 0.2157 0.5490);fill-opacity:1;"/>
<path fill-rule="evenodd" clip-rule="evenodd" d="M27.5429 35.2222C28.3153 33.6375 29.8697 32.4074 31.6571 32.4074C33.4446 32.4074 34.999 33.6375 35.7715 35.2222H27.5429ZM31.6553 12C35.8221 12 39.2 15.4966 39.2 19.81V21.9973C39.2 22.278 38.9669 22.5556 38.6957 22.5556H35.9199C35.6487 22.5556 35.4287 22.278 35.4287 21.9973V19.81C35.4287 17.6561 33.7383 15.9037 31.6574 15.9037C29.5766 15.9037 27.8861 17.6561 27.8861 19.81V21.9973C27.8861 22.278 27.6484 22.5556 27.3772 22.5556H24.6014C24.3303 22.5556 24.1149 22.278 24.1149 21.9973V19.6502C24.1149 19.6446 24.1147 19.639 24.1146 19.6335C24.1143 19.6212 24.114 19.6091 24.1152 19.5968C24.2247 15.3823 27.5575 12 31.6553 12ZM23.1959 39.849C24.1665 43.9247 27.7532 47.0445 32.0195 47.0445H43.9467C43.6667 48.7193 42.2168 50 40.4786 50H23.5214C21.5847 50 20 48.3246 20 46.337V28.9349C20 26.9473 21.5847 25.3704 23.5214 25.3704H40.4786C42.4154 25.3704 44 26.9965 44 28.9841L43.9836 42.3156H32.0195C30.1865 42.3156 28.597 41.4289 27.811 39.8526H41.12V37.5918C41.12 32.4511 37.0094 28.2721 32.0001 28.2721C27.7409 28.2721 24.1585 31.2996 23.181 35.3653C23.181 35.3653 22.9154 36.7267 22.9154 37.6141C22.9154 38.5013 23.1959 39.849 23.1959 39.849Z" fill="white" style="fill:white;fill-opacity:1;"/>
</g>
<defs>
<clipPath id="clip0_2250_408">
<rect width="64" height="64" rx="14" fill="white" style="fill:white;fill-opacity:1;"/>
</clipPath>
</defs>
</svg>
