<svg width="64" height="64" viewBox="0 0 64 64" fill="none" xmlns="http://www.w3.org/2000/svg">
<g clip-path="url(#clip0_2250_495)">
<rect x="0.5" y="0.5" width="63" height="63" rx="13.5" fill="white" stroke="#EEEEEE" style="fill:white;fill-opacity:1;stroke:#EEEEEE;stroke:color(display-p3 0.9333 0.9333 0.9333);stroke-opacity:1;"/>
<path d="M30.6691 31.6327V36.2599H29.2007V24.8335H33.0936C34.0802 24.8335 34.9215 25.1624 35.6099 25.8201C36.3135 26.4779 36.6653 27.2809 36.6653 28.2293C36.6653 29.2006 36.3135 30.0037 35.6099 30.6538C34.9292 31.3039 34.0879 31.6251 33.0936 31.6251H30.6691V31.6327ZM30.6691 26.2408V30.2255H33.1242C33.7055 30.2255 34.1949 30.0266 34.5774 29.6366C34.9674 29.2465 35.1663 28.7723 35.1663 28.2369C35.1663 27.7092 34.9674 27.2427 34.5774 26.8526C34.1949 26.4473 33.7131 26.2484 33.1242 26.2484H30.6691V26.2408Z" fill="#3C4043" style="fill:#3C4043;fill:color(display-p3 0.2353 0.2510 0.2627);fill-opacity:1;"/>
<path d="M40.5047 28.1835C41.5908 28.1835 42.4474 28.4742 43.0745 29.0554C43.7017 29.6367 44.0152 30.4321 44.0152 31.4417V36.26H42.6156V35.174H42.5544C41.9502 36.0688 41.1395 36.5124 40.13 36.5124C39.2657 36.5124 38.5468 36.26 37.9655 35.7476C37.3843 35.2352 37.0936 34.6004 37.0936 33.8355C37.0936 33.0248 37.3996 32.3824 38.0114 31.9082C38.6233 31.4264 39.4416 31.1893 40.4588 31.1893C41.3307 31.1893 42.0497 31.3499 42.608 31.6711V31.3346C42.608 30.8222 42.4091 30.3939 42.0038 30.0344C41.5984 29.6749 41.1242 29.499 40.5812 29.499C39.7628 29.499 39.1127 29.8432 38.6386 30.5392L37.346 29.7285C38.0573 28.696 39.1128 28.1835 40.5047 28.1835ZM38.608 33.8585C38.608 34.2409 38.7686 34.5621 39.0975 34.8145C39.4187 35.0669 39.8011 35.1969 40.237 35.1969C40.8565 35.1969 41.4072 34.9675 41.889 34.5086C42.3709 34.0497 42.6156 33.5143 42.6156 32.8948C42.1567 32.5353 41.5219 32.3518 40.7036 32.3518C40.107 32.3518 39.6099 32.4971 39.2122 32.7801C38.8068 33.0784 38.608 33.4378 38.608 33.8585Z" fill="#3C4043" style="fill:#3C4043;fill:color(display-p3 0.2353 0.2510 0.2627);fill-opacity:1;"/>
<path d="M51.9999 28.436L47.1051 39.6941H45.5907L47.411 35.7553L44.1835 28.436H45.7819L48.107 34.0497H48.1376L50.4014 28.436H51.9999Z" fill="#3C4043" style="fill:#3C4043;fill:color(display-p3 0.2353 0.2510 0.2627);fill-opacity:1;"/>
<path d="M24.8283 30.6999C24.8283 30.2211 24.7855 29.763 24.7059 29.3224H18.5507V31.8463L22.0956 31.8471C21.9518 32.6869 21.4891 33.4028 20.7801 33.88V35.5175H22.8902C24.1224 34.3771 24.8283 32.6915 24.8283 30.6999Z" fill="#4285F4" style="fill:#4285F4;fill:color(display-p3 0.2588 0.5216 0.9569);fill-opacity:1;"/>
<path d="M20.7809 33.8799C20.1935 34.2761 19.4371 34.5078 18.5522 34.5078C16.8429 34.5078 15.3928 33.356 14.8734 31.8034H12.6968V33.4921C13.7752 35.6321 15.9916 37.1005 18.5522 37.1005C20.322 37.1005 21.8088 36.5185 22.891 35.5166L20.7809 33.8799Z" fill="#34A853" style="fill:#34A853;fill:color(display-p3 0.2039 0.6588 0.3255);fill-opacity:1;"/>
<path d="M14.6685 30.5507C14.6685 30.1147 14.7411 29.6933 14.8734 29.2971V27.6084H12.6967C12.2509 28.4933 12 29.4921 12 30.5507C12 31.6092 12.2516 32.608 12.6967 33.4929L14.8734 31.8042C14.7411 31.408 14.6685 30.9866 14.6685 30.5507Z" fill="#FABB05" style="fill:#FABB05;fill:color(display-p3 0.9804 0.7333 0.0196);fill-opacity:1;"/>
<path d="M18.5522 26.5927C19.5182 26.5927 20.3832 26.9254 21.0662 27.5755L22.9362 25.7071C21.8004 24.6493 20.3197 24 18.5522 24C15.9924 24 13.7752 25.4685 12.6968 27.6084L14.8734 29.2971C15.3928 27.7446 16.8429 26.5927 18.5522 26.5927Z" fill="#E94235" style="fill:#E94235;fill:color(display-p3 0.9137 0.2588 0.2078);fill-opacity:1;"/>
</g>
<defs>
<clipPath id="clip0_2250_495">
<rect width="64" height="64" rx="14" fill="white" style="fill:white;fill-opacity:1;"/>
</clipPath>
</defs>
</svg>
