<svg width="64" height="64" viewBox="0 0 64 64" fill="none" xmlns="http://www.w3.org/2000/svg">
<g clip-path="url(#clip0_2250_446)">
<path d="M50 0H14C6.26801 0 0 6.26801 0 14V50C0 57.732 6.26801 64 14 64H50C57.732 64 64 57.732 64 50V14C64 6.26801 57.732 0 50 0Z" fill="#E664A5" style="fill:#E664A5;fill:color(display-p3 0.9020 0.3922 0.6471);fill-opacity:1;"/>
<path d="M12 16.6667V46.6882C12 48.1505 13.2043 49.2688 14.5806 49.2688H32.5591C46.1505 49.2688 52 41.6989 52 31.6344C52 21.5699 46.1505 14 32.5591 14H14.6667C13.2043 14.086 12 15.2903 12 16.6667Z" fill="white" style="fill:white;fill-opacity:1;"/>
<path d="M24.0432 21.4838V43.6774H33.6776C42.4518 43.6774 46.2367 38.6881 46.2367 31.7204C46.2367 25.0107 42.4518 19.8494 33.6776 19.8494H25.6776C24.8173 19.7634 24.0432 20.5376 24.0432 21.4838Z" fill="#CC0066" style="fill:#CC0066;fill:color(display-p3 0.8000 0.0000 0.4000);fill-opacity:1;"/>
<path d="M32.5591 46.9462H16.9893C15.6129 46.9462 14.4946 45.828 14.4946 44.4516V18.9893C14.4946 17.6129 15.6129 16.4946 16.9893 16.4946H32.5591C47.3548 16.4946 49.5914 26.043 49.5914 31.7204C49.5914 41.5269 43.5699 46.9462 32.5591 46.9462ZM16.9893 17.3548C16.043 17.3548 15.3548 18.129 15.3548 18.9893V44.4516C15.3548 45.3979 16.129 46.086 16.9893 46.086H32.5591C42.9678 46.086 48.7312 40.9247 48.7312 31.6344C48.7312 19.1613 38.5807 17.2688 32.5591 17.2688L16.9893 17.3548Z" fill="black" style="fill:black;fill-opacity:1;"/>
<path d="M27.4838 28.7097C27.8279 28.7097 28.172 28.7957 28.4301 28.8817C28.6881 28.9677 28.9462 29.1398 29.2043 29.3978C29.3763 29.6559 29.5484 29.914 29.7204 30.172C29.8064 30.5161 29.8924 30.8602 29.8924 31.2903C29.8924 31.7204 29.8064 32.0645 29.7204 32.3226C29.6344 32.6667 29.4623 32.9247 29.2903 33.1828C29.1182 33.4409 28.8602 33.6129 28.5161 33.7849C28.258 33.957 27.8279 33.957 27.4838 33.957H25.1613V28.6237L27.4838 28.7097ZM27.3978 33.0108C27.5699 33.0108 27.7419 33.0108 27.9139 32.9247C28.086 32.8387 28.172 32.7527 28.3441 32.6667C28.4301 32.4946 28.6021 32.4086 28.6021 32.1505C28.6881 31.9785 28.6881 31.7204 28.6881 31.3763C28.6881 31.1183 28.6881 30.8602 28.6021 30.6882C28.5161 30.5161 28.4301 30.2581 28.3441 30.172C28.258 30 28.086 29.914 27.9139 29.828C27.7419 29.7419 27.4838 29.7419 27.2258 29.7419H26.3656V33.0968L27.3978 33.0108Z" fill="white" style="fill:white;fill-opacity:1;"/>
<path d="M34.6238 28.7097V29.6559H31.7851V30.8602H34.3657V31.7204H31.7851V33.0108H34.6238V33.957H30.5807V28.6237L34.6238 28.7097Z" fill="white" style="fill:white;fill-opacity:1;"/>
<path d="M38.5808 28.7097L40.5593 34.0431H39.355L38.9249 32.8387H36.9464L36.5163 34.0431H35.312L37.2904 28.7097C37.3765 28.7097 38.5808 28.7097 38.5808 28.7097ZM38.6668 31.9785L37.9786 30L37.2904 31.9785H38.6668Z" fill="white" style="fill:white;fill-opacity:1;"/>
<path d="M42.4514 28.7097V33.0108H45.032V33.957H41.2471V28.6237C41.3331 28.7097 42.4514 28.7097 42.4514 28.7097Z" fill="white" style="fill:white;fill-opacity:1;"/>
<path d="M19.6559 33.7849C20.9862 33.7849 22.0645 32.7065 22.0645 31.3763C22.0645 30.0461 20.9862 28.9677 19.6559 28.9677C18.3257 28.9677 17.2473 30.0461 17.2473 31.3763C17.2473 32.7065 18.3257 33.7849 19.6559 33.7849Z" fill="black" style="fill:black;fill-opacity:1;"/>
<path d="M21.5485 43.6774C19.484 43.6774 17.8496 42.043 17.8496 39.9785V37.0538C17.8496 36.0215 18.7098 35.1613 19.7421 35.1613C20.7743 35.1613 21.6346 36.0215 21.6346 37.0538L21.5485 43.6774Z" fill="black" style="fill:black;fill-opacity:1;"/>
</g>
<defs>
<clipPath id="clip0_2250_446">
<rect width="64" height="64" rx="14" fill="white" style="fill:white;fill-opacity:1;"/>
</clipPath>
</defs>
</svg>
