<svg width="64" height="64" viewBox="0 0 64 64" fill="none" xmlns="http://www.w3.org/2000/svg">
<g clip-path="url(#clip0_4456_202)">
<path d="M50 0H14C6.26801 0 0 6.26801 0 14V50C0 57.732 6.26801 64 14 64H50C57.732 64 64 57.732 64 50V14C64 6.26801 57.732 0 50 0Z" fill="#E664A5" style="fill:#E664A5;fill:color(display-p3 0.9020 0.3922 0.6471);fill-opacity:1;"/>
<g clip-path="url(#clip1_4456_202)">
<path d="M48.3892 24.5576H29.7598C31.4143 26.4839 32.1879 29.0645 32.1879 31.977C32.1879 34.8894 31.4098 37.5115 29.7463 39.447H48.3847C53.6927 39.447 55.9956 36.3549 55.9956 31.9862C55.9956 27.6175 53.6927 24.5576 48.3847 24.5576H48.3892Z" fill="black" style="fill:black;fill-opacity:1;"/>
<path d="M8 22.6313V41.3687C8 42.2673 8.71101 43 9.58301 43H20.4494C28.6641 43 32.2236 38.2627 32.2236 31.977C32.2236 25.6912 28.6596 21 20.4449 21H9.58301C8.71101 21 8 21.7327 8 22.6313Z" fill="white" style="fill:white;fill-opacity:1;"/>
<path d="M15.271 25.5991V39.447H21.1201C26.4281 39.447 28.731 36.3549 28.731 31.9862C28.731 27.6175 26.4281 24.5576 21.1201 24.5576H16.2861C15.7226 24.5576 15.271 25.0323 15.271 25.5991Z" fill="#CC0066" style="fill:#CC0066;fill:color(display-p3 0.8000 0.0000 0.4000);fill-opacity:1;"/>
<path d="M20.445 41.5069H11.0006C10.1599 41.5069 9.48022 40.8064 9.48022 39.9401V24.0645C9.48022 23.1981 10.1599 22.4977 11.0006 22.4977H20.4495C29.4154 22.4977 30.7524 28.4424 30.7524 31.9816C30.7524 38.1198 27.0901 41.5069 20.4495 41.5069H20.445ZM11.0006 23.023C10.4372 23.023 9.99001 23.4885 9.99001 24.0645V39.9401C9.99001 40.5207 10.4417 40.9862 11.0006 40.9862H20.4495C26.7636 40.9862 30.2471 37.788 30.2471 31.9816C30.2471 24.1843 24.1074 23.0184 20.4495 23.0184H11.0006V23.023Z" fill="black" style="fill:black;fill-opacity:1;"/>
<path d="M17.3281 30.1152C17.5338 30.1152 17.7216 30.1475 17.9049 30.212C18.0883 30.2765 18.2358 30.3825 18.37 30.5115C18.4952 30.6498 18.5981 30.8203 18.6786 31.0185C18.7501 31.2212 18.7903 31.4609 18.7903 31.7374C18.7903 31.9816 18.759 32.2028 18.7054 32.4056C18.6428 32.6083 18.5533 32.788 18.4371 32.9355C18.3208 33.083 18.1688 33.1982 17.9854 33.2857C17.8021 33.3687 17.5919 33.4148 17.346 33.4148H15.9597V30.106H17.3281V30.1152ZM17.2789 32.8157C17.3817 32.8157 17.4756 32.7973 17.5785 32.765C17.6724 32.7327 17.7618 32.6774 17.8334 32.5945C17.9049 32.5115 17.9675 32.4148 18.0167 32.2857C18.0659 32.1567 18.0883 32.0092 18.0883 31.8203C18.0883 31.659 18.0704 31.5023 18.0391 31.3733C18.0078 31.2443 17.9541 31.1198 17.8826 31.0323C17.811 30.9447 17.7171 30.8618 17.5964 30.8111C17.4756 30.7604 17.337 30.7374 17.1626 30.7374H16.6573V32.8249H17.2834V32.8157H17.2789Z" fill="white" style="fill:white;fill-opacity:1;"/>
<path d="M21.6478 30.1153V30.7282H19.953V31.4378H21.5137V32.0001H19.953V32.8065H21.6881V33.4194H19.251V30.1107H21.6478V30.1199V30.1153Z" fill="white" style="fill:white;fill-opacity:1;"/>
<path d="M24.0715 30.1152L25.2744 33.424H24.5366L24.2906 32.6913H23.0877L22.8328 33.424H22.1218L23.3337 30.1152H24.0715ZM24.1118 32.1475L23.7093 30.9309H23.7004L23.28 32.1475H24.1118Z" fill="white" style="fill:white;fill-opacity:1;"/>
<path d="M26.4192 30.1152V32.8157H27.9843V33.4286H25.7126V30.1198H26.4147L26.4192 30.1152Z" fill="white" style="fill:white;fill-opacity:1;"/>
<path d="M12.6284 33.2995C13.4458 33.2995 14.1085 32.6166 14.1085 31.7742C14.1085 30.9318 13.4458 30.2488 12.6284 30.2488C11.8109 30.2488 11.1482 30.9318 11.1482 31.7742C11.1482 32.6166 11.8109 33.2995 12.6284 33.2995Z" fill="black" style="fill:black;fill-opacity:1;"/>
<path d="M13.7462 39.447C12.5031 39.447 11.5059 38.4102 11.5059 37.1383V35.3364C11.5059 34.7005 12.0022 34.1797 12.6283 34.1797C13.2454 34.1797 13.7507 34.6913 13.7507 35.3364V39.447H13.7417H13.7462Z" fill="black" style="fill:black;fill-opacity:1;"/>
<path d="M36.3064 28.235C35.9487 28.235 35.6714 28.1475 35.4657 27.9723C35.2645 27.7972 35.1616 27.5438 35.1616 27.2166C35.1616 26.9217 35.2645 26.682 35.4702 26.4931C35.6759 26.3041 35.9531 26.212 36.3019 26.212C36.6507 26.212 36.9369 26.2995 37.1337 26.4746C37.3304 26.6498 37.4333 26.8986 37.4333 27.2166C37.4333 27.5346 37.3304 27.765 37.1292 27.9539C36.928 28.1429 36.6507 28.235 36.3019 28.235H36.3064ZM35.3539 36.0322V29.5207H37.2589V36.0322H35.3539Z" fill="white" style="fill:white;fill-opacity:1;"/>
<path d="M39.0387 36.0277V29.5161H40.8452L40.9034 30.8387L40.5233 30.9862C40.6127 30.6913 40.7692 30.424 40.9928 30.1844C41.2164 29.9447 41.4892 29.7512 41.8067 29.6037C42.1242 29.4562 42.4551 29.3825 42.8039 29.3825C43.2779 29.3825 43.6803 29.4839 44.0068 29.682C44.3332 29.8802 44.5792 30.1797 44.7446 30.5761C44.9101 30.9724 44.9951 31.4562 44.9951 32.0277V36.0231H43.0811V32.1844C43.0811 31.9217 43.0454 31.7051 42.9738 31.5346C42.9023 31.3641 42.7949 31.235 42.6474 31.1475C42.4998 31.0599 42.3209 31.0231 42.1063 31.0323C41.9408 31.0323 41.7843 31.0599 41.6412 31.1106C41.4981 31.1659 41.3774 31.2397 41.2745 31.3456C41.1717 31.447 41.0912 31.5622 41.0286 31.6959C40.966 31.8295 40.9392 31.9678 40.9392 32.1244V36.0231H39.0342L39.0387 36.0277Z" fill="white" style="fill:white;fill-opacity:1;"/>
<path d="M51.8279 32.1106C51.6848 31.7788 51.488 31.4931 51.2331 31.2442C50.9782 31 50.6876 30.8064 50.3656 30.6682C50.1465 30.576 49.9095 30.5253 49.668 30.4931L51.8055 28.129L51.4388 27.3687H46.3231V29.1198L48.9928 29.1751L47.2264 31.1521L47.6646 32.364C47.8211 32.2811 47.9777 32.2166 48.1297 32.1659C48.2817 32.1152 48.4248 32.0783 48.559 32.0507C48.6931 32.023 48.8228 32.0092 48.9391 32.0092C49.2029 32.0092 49.4265 32.0553 49.6099 32.1428C49.7932 32.2304 49.9408 32.364 50.0392 32.5392C50.1375 32.7143 50.1867 32.9309 50.1867 33.1843C50.1867 33.4193 50.1286 33.6359 50.0123 33.8203C49.8961 34.0092 49.7485 34.1521 49.5607 34.2534C49.3729 34.3548 49.1716 34.4055 48.948 34.4055C48.7244 34.4055 48.5143 34.3687 48.313 34.2903C48.1118 34.212 47.9151 34.0875 47.7317 33.917C47.5439 33.7465 47.365 33.5161 47.1906 33.2304L45.7373 34.1981C46.1487 34.9078 46.6093 35.4101 47.1101 35.7004C47.6154 35.9908 48.2013 36.1336 48.8765 36.1336C49.4623 36.1336 49.9944 36.0046 50.4774 35.7419C50.9559 35.4793 51.336 35.129 51.6177 34.682C51.8994 34.235 52.038 33.7281 52.038 33.1567C52.038 32.7788 51.9665 32.4286 51.8234 32.0968L51.8279 32.1106Z" fill="white" style="fill:white;fill-opacity:1;"/>
</g>
</g>
<defs>
<clipPath id="clip0_4456_202">
<rect width="64" height="64" rx="14" fill="white" style="fill:white;fill-opacity:1;"/>
</clipPath>
<clipPath id="clip1_4456_202">
<rect width="48" height="22" fill="white" style="fill:white;fill-opacity:1;" transform="translate(8 21)"/>
</clipPath>
</defs>
</svg>
