<svg width="64" height="64" viewBox="0 0 64 64" fill="none" xmlns="http://www.w3.org/2000/svg">
<g clip-path="url(#clip0_2250_1599)">
<rect width="64" height="64" rx="14" fill="#00ACEF" style="fill:#00ACEF;fill:color(display-p3 0.0000 0.6745 0.9373);fill-opacity:1;"/>
<path fill-rule="evenodd" clip-rule="evenodd" d="M32.1924 29.6274C35.9996 29.6274 39.0857 26.5768 39.0857 22.8136C39.0857 19.0508 35.9996 16 32.1924 16C28.3854 16 25.2993 19.0508 25.2993 22.8136C25.2993 26.5768 28.3854 29.6274 32.1924 29.6274Z" fill="white" style="fill:white;fill-opacity:1;"/>
<path fill-rule="evenodd" clip-rule="evenodd" d="M30.6759 31.1413C28.3706 31.1413 26.3852 30.2556 25.1227 29.2711C17.5969 30.0518 12 31.1582 12 31.1582V34.0554H52C52 29.9888 52 27.9555 52 27.9555C52 27.9555 45.0838 27.9136 37.2765 28.3264C35.9634 29.7336 33.6473 31.1413 30.6759 31.1413Z" fill="white" style="fill:white;fill-opacity:1;"/>
<path fill-rule="evenodd" clip-rule="evenodd" d="M16.7428 46.7826H12V35.8735H16.7428V40.7827L19.5615 35.8735H25.2482L21.0841 41.5112L25.0131 46.7826H19.5863L16.7755 42.6825L16.7428 46.7826Z" fill="white" style="fill:white;fill-opacity:1;"/>
<path fill-rule="evenodd" clip-rule="evenodd" d="M51.9247 46.2035C50.8054 46.5675 49.3344 46.7826 48.0183 46.7826C43.3261 46.7826 39.8813 45.3619 39.8813 41.23C39.8813 37.4959 43.2202 35.8735 47.7844 35.8735C49.053 35.8735 50.6643 36.0227 51.9247 36.4513L51.923 40.0682C50.989 39.4655 50.0549 39.0898 48.7171 39.0898C46.9763 39.0898 45.2364 40.0031 45.2364 41.3287C45.2364 42.6577 46.9685 43.5679 48.7171 43.5679C50.0335 43.5679 50.989 43.1796 51.923 42.6046L51.9247 46.2035Z" fill="white" style="fill:white;fill-opacity:1;"/>
<path fill-rule="evenodd" clip-rule="evenodd" d="M30.7676 40.4968H33.1297C34.0426 40.4968 34.4003 40.0883 34.4003 39.4619C34.4003 38.7441 34.0394 38.3857 33.1956 38.3857H30.7673L30.7676 40.4968ZM30.7676 44.5648H33.2404C34.1672 44.5648 34.4829 44.1409 34.4829 43.5148C34.4829 42.8884 34.1641 42.4384 33.251 42.4384H30.7673L30.7676 44.5648ZM26.0249 35.8735H35.6121C38.1025 35.8735 38.9187 36.9431 38.9187 38.6083C38.9187 40.4722 37.4105 41.2822 35.8612 41.3735V41.4043C37.4519 41.542 39.0015 41.7403 39.0015 43.9404C39.0015 45.3769 38.1853 46.7826 35.446 46.7826H26.0249V35.8735Z" fill="white" style="fill:white;fill-opacity:1;"/>
</g>
<defs>
<clipPath id="clip0_2250_1599">
<rect width="64" height="64" rx="14" fill="white" style="fill:white;fill-opacity:1;"/>
</clipPath>
</defs>
</svg>
