<svg viewBox="0 0 40 40" fill="none" xmlns="http://www.w3.org/2000/svg" data-testid="method-icon" data-method="mbway" aria-hidden="true" focusable="false" class="mollie-ui-box mollie-ui-icon"><rect width="40" height="40" rx="10" fill="#fff"></rect><path fill-rule="evenodd" clip-rule="evenodd" d="M19.94 27.086h9.09c2.073 0 2.095-2.205 1.883-3.293-.115-.733-1.36-.721-1.496 0v.848a.708.708 0 0 1-.706.707H11.289a.708.708 0 0 1-.706-.707v-.848c-.137-.721-1.38-.733-1.496 0-.212 1.088-.19 3.293 1.884 3.293h8.97ZM13.518 5.96H27.53c.984 0 1.79.853 1.79 1.895v.906c0 1.28-1.73 1.274-1.73.008v-.493a.577.577 0 0 0-.576-.576h-14.04a.576.576 0 0 0-.577.576v.485c0 1.272-1.652 1.264-1.652.027v-.931c.005-1.042.809-1.897 1.793-1.897h.98Z" fill="red"></path><path fill-rule="evenodd" clip-rule="evenodd" d="M28.966 16.367a2.77 2.77 0 0 1 1.64 2.482c0 1.525-1.332 2.773-2.959 2.773h-4.564a.753.753 0 0 1-.776-.72v-8.688a.763.763 0 0 1 .763-.761h3.8a2.901 2.901 0 0 1 2.096 4.914Zm-3.406-.706h1.449v-.016a1.385 1.385 0 0 0 1.17-1.362 1.382 1.382 0 0 0-1.378-1.377h-2.918v7.206h3.7a1.423 1.423 0 1 0 0-2.847H25.56a.8.8 0 0 1 0-1.6" fill="#1D1D1B"></path><path d="M21.582 20.756a.916.916 0 1 1-1.821.193l-.754-6.905-2.653 6.752v.082a.88.88 0 0 1-.23.263l-.014.011a.836.836 0 0 1-.158.113l-.018.008-.015.009H15.828a.873.873 0 0 1-.268.05h-.067a.876.876 0 0 1-.3-.062H15.12l-.016-.008-.015-.009h-.008a.86.86 0 0 1-.144-.096l-.03-.028-.024-.021-.054-.015-.028-.03a.872.872 0 0 1-.097-.144v-.009l-.008-.014-.009-.016V20.812l-2.702-6.768-.75 6.905a.915.915 0 0 1-1.821-.193l.885-8.14a1.518 1.518 0 0 1 1.308-1.338h.05c.077-.005.154-.005.231 0a1.504 1.504 0 0 1 1.342.957l2.269 5.733 2.264-5.751a1.506 1.506 0 0 1 1.342-.957c.077-.006.154-.006.232 0h.049a1.522 1.522 0 0 1 1.308 1.343l.89 8.153ZM16.914 31.85c-.058.224-.118.463-.181.726-.064.263-.127.498-.182.725a5.791 5.791 0 0 1-.181.609c-.034.125-.08.247-.138.363a.364.364 0 0 1-.342.17.746.746 0 0 1-.182-.027.296.296 0 0 1-.18-.156 2.179 2.179 0 0 1-.139-.377c-.054-.181-.112-.403-.18-.647-.07-.245-.122-.502-.182-.776s-.118-.528-.165-.762l-.123-.598a9.606 9.606 0 0 1-.057-.297.29.29 0 0 1 0-.042v-.023a.204.204 0 0 1 .08-.169.296.296 0 0 1 .196-.063.32.32 0 0 1 .181.047.252.252 0 0 1 .098.161s.011.067.033.181c.021.115.052.25.087.42l.116.574c.041.212.087.428.136.645.049.218.094.426.141.631.047.205.089.379.13.526.04-.138.086-.296.135-.473.049-.178.1-.363.148-.544.05-.181.095-.38.14-.568l.127-.529c.04-.167.07-.306.1-.433.029-.127.05-.22.067-.281a.344.344 0 0 1 .116-.181.322.322 0 0 1 .2-.084.333.333 0 0 1 .222.07.31.31 0 0 1 .109.182c.049.198.096.422.148.669.053.247.11.495.165.747a21.317 21.317 0 0 0 .363 1.387c.04-.147.085-.321.132-.524s.093-.414.142-.631c.049-.218.098-.428.141-.64.043-.212.087-.402.123-.571.037-.169.067-.306.087-.412.02-.105.035-.163.035-.166a.27.27 0 0 1 .098-.16.312.312 0 0 1 .18-.047.306.306 0 0 1 .198.064.21.21 0 0 1 .08.168v.067c0 .033-.023.13-.058.298l-.125.596c-.049.234-.105.487-.165.758-.06.27-.123.527-.181.772-.058.244-.116.46-.181.645-.034.129-.08.254-.138.374a.32.32 0 0 1-.181.163.625.625 0 0 1-.256.032.42.42 0 0 1-.214-.082.27.27 0 0 1-.087-.108 2.738 2.738 0 0 1-.13-.384c-.053-.182-.107-.381-.167-.606-.06-.224-.116-.464-.181-.71-.066-.247-.111-.477-.16-.691M20.12 33.308c-.061.196-.115.377-.16.544a4.618 4.618 0 0 1-.133.41.274.274 0 1 1-.544-.073c0-.027.004-.054.013-.08l.076-.251c.044-.142.1-.317.169-.531.069-.214.146-.443.23-.695.083-.252.17-.502.259-.748.089-.247.181-.477.265-.69.07-.177.151-.35.244-.518a.283.283 0 0 1 .133-.14.564.564 0 0 1 .224-.036.59.59 0 0 1 .23.042.256.256 0 0 1 .131.147c.058.122.127.287.205.491.078.205.165.428.252.667.087.24.181.483.261.725.08.243.165.479.236.693.07.214.132.397.181.544.049.147.083.248.094.293a.238.238 0 0 1 .013.08.227.227 0 0 1-.074.181.283.283 0 0 1-.213.071.224.224 0 0 1-.157-.045.3.3 0 0 1-.082-.13 9.84 9.84 0 0 1-.145-.41c-.056-.167-.114-.348-.181-.544h-1.532m1.36-.531c-.087-.265-.167-.508-.245-.725-.078-.218-.147-.426-.234-.633a2.236 2.236 0 0 1-.063-.158c-.022-.061-.037-.092-.04-.103a.463.463 0 0 0-.04.098 11.42 11.42 0 0 0-.3.796c-.077.223-.157.464-.242.725h1.164ZM23.557 32.9a.522.522 0 0 1-.058-.068l-.06-.084a3.027 3.027 0 0 1-.18-.297c-.064-.116-.137-.24-.204-.362a7.258 7.258 0 0 1-.194-.396c-.061-.132-.123-.255-.172-.362a17.512 17.512 0 0 1-.132-.297 1.185 1.185 0 0 1-.067-.182.245.245 0 0 1-.017-.047v-.045a.25.25 0 0 1 .175-.24.285.285 0 0 1 .114-.016.225.225 0 0 1 .18.062.4.4 0 0 1 .075.121l.06.134c.03.07.069.154.112.256a10.964 10.964 0 0 0 .336.7l.172.339c.047.09.099.18.156.264a4.51 4.51 0 0 0 .252-.447c.089-.182.181-.354.255-.53.075-.176.153-.33.214-.462l.107-.252a.403.403 0 0 1 .076-.121.21.21 0 0 1 .182-.062.281.281 0 0 1 .212.074.237.237 0 0 1 .076.182.18.18 0 0 1 0 .045l-.015.047-.07.181a8.145 8.145 0 0 1-.13.298c-.053.116-.108.237-.17.362-.061.125-.13.263-.197.395a4.96 4.96 0 0 1-.201.363c-.067.109-.13.22-.181.299a.973.973 0 0 1-.118.141v1.27a.27.27 0 0 1-.076.2.277.277 0 0 1-.454-.095.28.28 0 0 1-.021-.113v-1.269" fill="#1D1D1B"></path></svg>
