<svg viewBox="0 0 40 40" fill="none" xmlns="http://www.w3.org/2000/svg" data-testid="method-icon" data-method="multibanco" aria-hidden="true" focusable="false" class="mollie-ui-box mollie-ui-icon"><rect width="40" height="40" rx="10" fill="#fff"></rect><path fill-rule="evenodd" clip-rule="evenodd" d="M19.94 27.086h9.09c2.073 0 2.095-2.205 1.883-3.293-.115-.733-1.36-.721-1.496 0v.848a.708.708 0 0 1-.706.707H11.289a.708.708 0 0 1-.706-.707v-.848c-.137-.721-1.38-.733-1.496 0-.212 1.088-.19 3.293 1.884 3.293h8.97ZM13.518 5.96H27.53c.984 0 1.79.853 1.79 1.895v.906c0 1.28-1.73 1.274-1.73.008v-.493a.577.577 0 0 0-.576-.576h-14.04a.576.576 0 0 0-.577.576v.485c0 1.272-1.652 1.264-1.652.027v-.931c.005-1.042.809-1.897 1.793-1.897h.98Z" fill="#3D73B9"></path><path fill-rule="evenodd" clip-rule="evenodd" d="M28.966 16.367a2.77 2.77 0 0 1 1.64 2.482c0 1.525-1.332 2.773-2.959 2.773h-4.564a.753.753 0 0 1-.776-.72v-8.688a.763.763 0 0 1 .763-.761h3.8a2.901 2.901 0 0 1 2.096 4.914Zm-3.406-.706h1.449v-.016a1.385 1.385 0 0 0 1.17-1.362 1.382 1.382 0 0 0-1.378-1.377h-2.918v7.206h3.7a1.423 1.423 0 1 0 0-2.847H25.56a.8.8 0 0 1 0-1.6" fill="#1D1D1B"></path><path d="M21.582 20.756a.916.916 0 1 1-1.821.193l-.754-6.905-2.653 6.752v.082a.88.88 0 0 1-.23.263l-.014.011a.836.836 0 0 1-.158.113l-.018.008-.015.009H15.828a.873.873 0 0 1-.268.05h-.067a.876.876 0 0 1-.3-.062H15.12l-.016-.008-.015-.009h-.008a.86.86 0 0 1-.144-.096l-.03-.028-.024-.021-.054-.015-.028-.03a.872.872 0 0 1-.097-.144v-.009l-.008-.014-.009-.016V20.812l-2.702-6.768-.75 6.905a.915.915 0 0 1-1.821-.193l.885-8.14a1.518 1.518 0 0 1 1.308-1.338h.05c.077-.005.154-.005.231 0a1.504 1.504 0 0 1 1.342.957l2.269 5.733 2.264-5.751a1.506 1.506 0 0 1 1.342-.957c.077-.006.154-.006.232 0h.049a1.522 1.522 0 0 1 1.308 1.343l.89 8.153ZM12.6 31.09a.317.317 0 1 1 .635 0v1.712a1.423 1.423 0 0 1-1.42 1.422 1.424 1.424 0 0 1-1.422-1.42v-1.713a.316.316 0 0 1 .55-.24.317.317 0 0 1 .083.24v1.713a.797.797 0 0 0 .79.79.793.793 0 0 0 .79-.792L12.6 31.09ZM15.6 33.591a.317.317 0 1 1 0 .635h-.88a1.188 1.188 0 0 1-1.189-1.189V31.09a.316.316 0 0 1 .63 0v1.943a.56.56 0 0 0 .56.56h.88v-.002ZM10.27 33.873a.317.317 0 1 1-.629.075l-.27-2.282-.968 2.239a.317.317 0 0 1-.416.166.311.311 0 0 1-.165-.166l-.968-2.239-.272 2.282a.317.317 0 1 1-.629-.075l.32-2.65a.51.51 0 0 1 .339-.42h.024a.54.54 0 0 1 .599.192.53.53 0 0 1 .056.095l.82 1.902.821-1.917a.522.522 0 0 1 .374-.3.751.751 0 0 1 .093-.014h.097a.533.533 0 0 1 .438.344c.008.02.014.04.017.061v.041l.32 2.666ZM16.98 33.909a.317.317 0 0 1-.634 0v-2.502h-.9a.317.317 0 1 1 0-.634h2.436a.317.317 0 1 1 0 .634h-.901v2.502ZM18.958 33.909a.317.317 0 0 1-.634 0v-2.82a.317.317 0 1 1 .634 0v2.82ZM25.453 33.873a.317.317 0 0 1-.63.077l-.111-.896h-1.09a.32.32 0 0 1-.315-.19.317.317 0 0 1 .315-.442h1.019l-.03-.234v-.022a1.056 1.056 0 0 0-.1-.328.719.719 0 0 0-.642-.427.64.64 0 0 0-.302.073.887.887 0 0 0-.44.704l-.199 1.762a.314.314 0 0 1-.348.278.314.314 0 0 1-.278-.347l.197-1.762a1.515 1.515 0 0 1 .782-1.201 1.306 1.306 0 0 1 1.304.075c.213.138.383.334.489.565.043.086.08.176.108.268.024.085.042.172.054.26a.077.077 0 0 1 0 .028l.216 1.76ZM26.42 33.909a.316.316 0 0 1-.442.315.318.318 0 0 1-.19-.315v-2.612a.257.257 0 0 1 0-.054.452.452 0 0 1 .025-.103l.026-.056a.455.455 0 0 1 .248-.207l.043-.011h.118a.448.448 0 0 1 .333.171l1.68 2.151V31.09a.317.317 0 0 1 .634 0v2.612a.446.446 0 0 1-.271.408l-.026.011a.446.446 0 0 1-.34-.018l-.04-.02a.38.38 0 0 1-.062-.05.43.43 0 0 1-.041-.04l-.011-.014-1.683-2.158v2.088ZM31.368 33.591a.317.317 0 1 1 0 .635h-.932a1.248 1.248 0 0 1-1.248-1.248v-.954a1.252 1.252 0 0 1 1.248-1.248h.932a.317.317 0 1 1 0 .634h-.932a.62.62 0 0 0-.437.187.612.612 0 0 0-.186.435v.953a.621.621 0 0 0 .617.618h.933l.005-.012ZM33.202 31.405a.862.862 0 0 0-.599.239.776.776 0 0 0-.244.56v.59a.774.774 0 0 0 .242.56c.162.155.376.24.6.24a.862.862 0 0 0 .598-.24.777.777 0 0 0 .245-.56v-.59a.782.782 0 0 0-.243-.56.871.871 0 0 0-.6-.24m0-.631c.386-.002.758.146 1.037.414a1.405 1.405 0 0 1 .438 1.015v.59a1.403 1.403 0 0 1-.438 1.016c-.28.267-.651.415-1.038.414a1.493 1.493 0 0 1-1.037-.414 1.41 1.41 0 0 1-.436-1.015v-.591a1.41 1.41 0 0 1 .436-1.015c.28-.268.651-.416 1.037-.415ZM19.856 31.407v2.184h1.224a.397.397 0 0 0 .293-.668l-.014-.01a.388.388 0 0 0-.28-.12h-.421a.317.317 0 1 1 0-.634h.144a.39.39 0 0 0 .321-.233.372.372 0 0 0-.344-.517h-.923v-.002Zm-.635 1.073v-1.377c0-.043.01-.086.027-.125a.371.371 0 0 1 .072-.11.325.325 0 0 1 .21-.09h1.24a1.01 1.01 0 0 1 .854 1.547c.068.04.13.087.187.141l.02.023a1.025 1.025 0 0 1-.02 1.434 1.032 1.032 0 0 1-.728.303H19.54a.317.317 0 0 1-.318-.318V32.48Z" fill="#1D1D1B"></path></svg>
