<svg width="64" height="64" viewBox="0 0 64 64" fill="none" xmlns="http://www.w3.org/2000/svg">
<g clip-path="url(#clip0_2250_489)">
<rect width="64" height="64" rx="14" fill="#D13239" style="fill:#D13239;fill:color(display-p3 0.8196 0.1961 0.2235);fill-opacity:1;"/>
<path fill-rule="evenodd" clip-rule="evenodd" d="M26.1817 25.0386C25.9983 24.8444 25.7339 24.6933 25.4426 24.5746C25.1351 24.4559 24.7952 24.3696 24.4607 24.3103C24.0399 24.2347 23.6299 24.2024 23.3386 24.1916C23.0689 24.1808 22.8962 24.1808 22.8962 24.1808H19.2061H16.4601L14 39.0384H16.2982L17.2046 33.5356L21.6608 33.5571C21.6608 33.5571 23.3979 33.6273 24.628 32.9745C25.858 32.3217 26.1871 30.8381 26.1871 30.8381C26.1871 30.8381 26.322 30.2878 26.4353 29.6189C26.5594 28.8798 26.6834 27.995 26.7482 27.5256C26.7752 27.3206 26.7913 27.1911 26.7913 27.1911C26.7913 27.1911 26.8237 27.0401 26.8237 26.8027C26.8291 26.4736 26.7806 25.9773 26.5216 25.5025C26.4299 25.3353 26.322 25.1842 26.1817 25.0386ZM24.4122 27.6605C24.4122 27.6875 24.2072 28.8798 23.9374 30.2932C23.8349 30.8327 23.4195 31.124 22.9448 31.2265C22.1571 31.3938 21.3101 31.3614 21.3101 31.3614L17.5876 31.3506L18.4076 26.4143L21.7795 26.4251C21.7795 26.4251 22.0061 26.4197 22.3244 26.4251C22.6858 26.4305 23.166 26.4467 23.5598 26.5006C23.8997 26.5438 24.1694 26.6139 24.2557 26.7218C24.369 26.8621 24.4122 27.0455 24.4284 27.2073C24.45 27.4447 24.4122 27.6443 24.4122 27.6605Z" fill="white" style="fill:white;fill-opacity:1;"/>
<path fill-rule="evenodd" clip-rule="evenodd" d="M28.4098 29.3869L30.735 29.3923L30.8753 28.4913C30.8753 28.4913 31.1235 26.8621 31.6791 26.5492C31.8572 26.4467 32.1431 26.3549 32.4722 26.2956C33.0818 26.1877 33.8533 26.1769 34.4845 26.1985C35.4502 26.2309 35.817 26.2416 36.7989 26.3549C37.7808 26.4682 37.5326 27.4177 37.5326 27.4177L37.3384 28.8366C37.3384 28.8366 37.2521 29.4732 37.0255 29.867C36.8259 30.2177 36.2756 30.4551 35.9573 30.5576C35.1912 30.8057 32.5693 31.4747 32.5693 31.4747L30.5084 32.0682C30.5084 32.0682 29.2406 32.435 28.5339 33.2173C27.8218 34.0049 27.5412 34.8951 27.4441 35.3591C27.347 35.823 26.8021 39.033 26.8021 39.033L37.9264 39.0384L38.2987 36.8157L29.4996 36.8265L29.656 35.9201C29.656 35.9201 29.7585 34.9868 30.1362 34.6793C30.2549 34.5822 30.3142 34.4527 31.0156 34.2045C31.4364 34.0535 32.8714 33.6704 32.8714 33.6704L36.1893 32.7641C36.1893 32.7641 38.002 32.3001 38.7141 31.3075C39.4262 30.3202 39.7014 28.4266 39.7014 28.4266C39.7014 28.4266 39.8956 26.5869 39.7445 26.0097C39.5989 25.4324 39.054 24.7419 38.3904 24.4451C37.7268 24.1484 37.0363 23.9758 35.0348 24.0028C33.0333 24.0297 32.0406 24.1214 31.0263 24.4991C30.0121 24.8713 29.4241 25.5511 29.0518 26.5114C28.6472 27.4231 28.4098 29.3869 28.4098 29.3869Z" fill="#D4D4D4" style="fill:#D4D4D4;fill:color(display-p3 0.8297 0.8297 0.8297);fill-opacity:1;"/>
<path fill-rule="evenodd" clip-rule="evenodd" d="M49.3527 33.5194L50.9119 24.1754H48.1497L39.5502 33.4115L39.1617 35.7529H46.6823L46.132 39.033L48.441 39.0384L48.9859 35.7529L51.1169 35.7583L51.4999 33.5194H49.3527ZM47.0545 33.5248L42.1937 33.5194L48.1119 27.2128L47.0545 33.5248Z" fill="#D4D4D4" style="fill:#D4D4D4;fill:color(display-p3 0.8297 0.8297 0.8297);fill-opacity:1;"/>
</g>
<defs>
<clipPath id="clip0_2250_489">
<rect width="64" height="64" rx="14" fill="white" style="fill:white;fill-opacity:1;"/>
</clipPath>
</defs>
</svg>
