<svg xmlns="http://www.w3.org/2000/svg" width="772.875" height="720" viewBox="0 0 204.49 190.5" xmlns:v="https://vecta.io/nano"><g transform="matrix(.852554 0 0 .852554 680.18141 153.25756)"><path clip-path="none" d="M-788.334-20.913a1.42 1.42 0 0 0-1.399 1.197l-8.067 51.163a1.31 1.31 0 0 0 1.292 1.514h9.569a1.42 1.42 0 0 0 1.399-1.195l2.368-15.025a1.42 1.42 0 0 1 1.399-1.195h8.697c10.165 0 18.792-7.415 20.368-17.465 1.59-10.133-6.325-18.973-17.547-18.994zm9.301 11.422h6.96c5.73 0 7.594 3.38 7.004 7.119-.59 3.747-3.485 6.507-9.029 6.507h-7.084zm45.787 3.48c-2.416.009-5.197.503-8.318 1.803-7.158 2.983-10.597 9.151-12.056 13.647 0 0-4.647 13.717 5.852 21.254 0 0 9.736 7.253 20.698-.449l-.188 1.203a1.31 1.31 0 0 0 1.292 1.514h9.083c.696 0 1.288-.508 1.397-1.197l5.526-35.037a1.31 1.31 0 0 0-1.292-1.514h-9.083c-.698 0-1.29.508-1.399 1.195l-.296 1.885h-.002s-3.966-4.331-11.215-4.304zm.297 11.067c1.043 0 1.997.142 2.852.418 3.918 1.259 6.142 5.021 5.498 9.103-.793 5.026-4.914 8.728-10.198 8.728-1.043 0-1.999-.143-2.854-.418-3.918-1.259-6.155-5.023-5.51-9.105.793-5.024 4.928-8.726 10.212-8.726z" fill="#003087"/><path clip-path="none" d="M-657.536-20.913c-.696 0-1.288.508-1.397 1.197l-8.069 51.163a1.31 1.31 0 0 0 1.294 1.514h9.569c.696 0 1.288-.507 1.397-1.195l2.37-15.025a1.42 1.42 0 0 1 1.399-1.195h8.697c10.165 0 18.792-7.415 20.368-17.465 1.59-10.133-6.327-18.973-17.549-18.994zm9.301 11.422h6.96c5.73 0 7.596 3.38 7.006 7.119-.59 3.747-3.486 6.507-9.031 6.507h-7.084zm45.789 3.48c-2.416.009-5.197.503-8.318 1.803-7.158 2.983-10.599 9.151-12.058 13.647 0 0-4.646 13.717 5.854 21.254 0 0 9.736 7.253 20.698-.449l-.19 1.203a1.31 1.31 0 0 0 1.294 1.514h9.081a1.42 1.42 0 0 0 1.399-1.197l5.526-35.037a1.31 1.31 0 0 0-1.294-1.514h-9.081c-.698 0-1.29.508-1.399 1.195l-.297 1.885s-3.966-4.331-11.215-4.304zm.295 11.067c1.043 0 1.999.142 2.854.418 3.918 1.259 6.14 5.021 5.497 9.103-.793 5.026-4.914 8.728-10.198 8.728-1.043 0-1.997-.143-2.852-.418-3.918-1.259-6.155-5.023-5.51-9.105.792-5.024 4.926-8.726 10.21-8.726z" fill="#0070e0"/><path clip-path="none" d="M-705.651-4.787a1.06 1.06 0 0 0-1.01 1.387l9.956 30.9-9.004 14.564c-.436.707.071 1.618.903 1.618h10.639a1.77 1.77 0 0 0 1.515-.853l27.807-46.007c.428-.707-.081-1.611-.907-1.611h-10.639a1.77 1.77 0 0 0-1.523.867l-10.946 18.483-5.557-18.345c-.182-.597-.731-1.004-1.356-1.004z" fill="#003087"/><path clip-path="none" d="M-568.839-20.913c-.696 0-1.288.508-1.397 1.197l-8.069 51.163a1.31 1.31 0 0 0 1.294 1.514h9.567c.696 0 1.288-.507 1.397-1.195l8.071-51.165a1.31 1.31 0 0 0-1.296-1.514z" fill="#0070e0"/><path clip-path="none" d="M-687.026-152.855c-1.907 0-3.532 1.387-3.829 3.272l-6.365 40.358-5.848 37.085-.004.031.007-.031 5.848-37.085c.297-1.885 1.92-3.272 3.828-3.272h18.646c18.765 0 34.693-13.691 37.601-32.243a30.77 30.77 0 0 0 .367-4.183v-.002h-.002c-4.769-2.502-10.369-3.931-16.505-3.931z" fill="#001c64"/><path clip-path="none" d="M-636.776-148.925c-.026 1.378-.146 2.775-.367 4.185-2.909 18.552-18.836 32.243-37.601 32.243h-18.646c-1.907 0-3.53 1.387-3.828 3.272l-5.848 37.085-3.67 23.267a3.15 3.15 0 0 0 3.111 3.639h20.239c1.909 0 3.532-1.387 3.83-3.272l5.331-33.813a3.88 3.88 0 0 1 3.829-3.274h11.918c18.765 0 34.691-13.69 37.599-32.241 2.065-13.17-4.562-25.15-15.897-31.091z" fill="#0070e0"/><path clip-path="none" d="M-710.02-179.763a3.88 3.88 0 0 0-3.829 3.274l-15.882 100.708a3.15 3.15 0 0 0 3.111 3.641h23.552l5.848-37.085 6.365-40.358c.297-1.885 1.922-3.272 3.829-3.272h33.743c6.137 0 11.737 1.43 16.507 3.929.325-16.89-13.612-30.836-32.775-30.836z" fill="#003087"/></g></svg>