<svg width="64" height="64" viewBox="0 0 64 64" fill="none" xmlns="http://www.w3.org/2000/svg">
<g clip-path="url(#clip0_2250_402)">
<path d="M50 0H14C6.26801 0 0 6.26801 0 14V50C0 57.732 6.26801 64 14 64H50C57.732 64 64 57.732 64 50V14C64 6.26801 57.732 0 50 0Z" fill="#0171C0" style="fill:#0171C0;fill:color(display-p3 0.0039 0.4431 0.7529);fill-opacity:1;"/>
<path opacity="0.6" d="M42.82 23.9141C42.79 24.1001 42.756 24.2881 42.718 24.4821C41.386 31.0381 36.828 33.3021 31.008 33.3021H28.044C27.332 33.3021 26.732 33.7981 26.62 34.4721L25.104 43.6961L24.674 46.3101C24.64 46.5201 24.702 46.7341 24.846 46.8961C24.99 47.0581 25.2 47.1501 25.422 47.1501H30.678C31.302 47.1501 31.83 46.7161 31.928 46.1281L31.98 45.8721L32.97 39.8521L33.032 39.5221C33.13 38.9321 33.66 38.4981 34.282 38.4981H35.068C40.16 38.4981 44.148 36.5161 45.312 30.7801C45.8 28.3861 45.548 26.3841 44.26 24.9781C43.852 24.5421 43.364 24.1821 42.82 23.9141Z" fill="white" style="fill:white;fill-opacity:1;"/>
<path opacity="0.8" d="M41.4279 23.382C41.0019 23.264 40.5699 23.172 40.1319 23.106C39.2679 22.978 38.3939 22.918 37.5199 22.924H29.6019C28.9799 22.922 28.4499 23.358 28.3539 23.948L26.6699 34.172L26.6199 34.472C26.7299 33.798 27.3339 33.302 28.0439 33.302H31.0079C36.8279 33.302 41.3859 31.036 42.7179 24.482C42.7579 24.288 42.7899 24.1 42.8199 23.914C42.4699 23.738 42.1039 23.59 41.7259 23.472C41.6259 23.44 41.5279 23.41 41.4279 23.382Z" fill="white" style="fill:white;fill-opacity:1;"/>
<path d="M28.3539 23.948C28.4479 23.358 28.9779 22.922 29.6019 22.924H37.5199C38.4579 22.924 39.3319 22.984 40.1319 23.108C40.6719 23.188 41.2059 23.31 41.7259 23.472C42.1199 23.596 42.4839 23.744 42.8219 23.914C43.2179 21.492 42.8179 19.842 41.4519 18.348C39.9459 16.704 37.2259 16 33.7459 16H23.6459C22.9339 16 22.3279 16.496 22.2179 17.17L18.0099 42.734C17.9719 42.974 18.0439 43.218 18.2079 43.404C18.3719 43.588 18.6139 43.696 18.8659 43.696H25.1039L26.6699 34.172L28.3539 23.948Z" fill="white" style="fill:white;fill-opacity:1;"/>
</g>
<defs>
<clipPath id="clip0_2250_402">
<rect width="64" height="64" rx="14" fill="white" style="fill:white;fill-opacity:1;"/>
</clipPath>
</defs>
</svg>
