<svg width="32" height="24" viewBox="0 0 32 24" fill="none" xmlns="http://www.w3.org/2000/svg">
<rect width="32" height="24" rx="4" fill="#F7E224"/>
<path fill-rule="evenodd" clip-rule="evenodd" d="M12.3983 7.00271C11.9431 6.99534 11.4907 7.07628 11.0662 7.24107L11.0662 7.24506C10.9522 7.27758 10.8421 7.32261 10.7379 7.37933C10.1622 7.67907 9.64103 8.07393 9.19636 8.54732L9.32958 7.14096H7.68815C7.67788 7.26739 7.67032 7.39111 7.66283 7.51378C7.64602 7.78889 7.62954 8.05877 7.58347 8.34232C7.55143 8.53956 7.51829 8.72907 7.4851 8.91881C7.4493 9.1235 7.41346 9.32845 7.37889 9.54368L5 19.9412L6.81747 19.9173L7.91176 15.15C8.22431 15.601 8.63408 15.9757 9.11072 16.2465C9.62142 16.5024 10.186 16.6316 10.7569 16.6231L11.0804 16.6231C11.7329 16.5775 12.3654 16.4022 12.9265 16.0654C13.619 15.6815 14.1895 15.1098 14.5727 14.4159C14.9693 13.785 15.2481 13.0872 15.3957 12.3564C15.5887 11.6295 15.6531 10.8744 15.5861 10.1253C15.5432 9.26397 15.1899 8.44749 14.5917 7.82745C14.3001 7.54947 13.9556 7.33318 13.5788 7.19148C13.2019 7.04978 12.8005 6.98558 12.3983 7.00271ZM11.0803 8.19458C10.8264 8.27945 10.5836 8.39469 10.3573 8.53778C9.88947 8.87492 9.51329 9.32397 9.26297 9.84402C8.93712 10.4435 8.69537 11.0852 8.54455 11.7509C8.39834 12.3446 8.34062 12.9567 8.37327 13.5673C8.3768 13.8112 8.42933 14.0519 8.52773 14.2751C8.62613 14.4982 8.76838 14.6992 8.946 14.866C9.12362 15.0329 9.33296 15.1622 9.56153 15.2462C9.7901 15.3302 10.0332 15.3672 10.2764 15.355C10.5432 15.3572 10.8234 15.3231 11.0804 15.2513L11.0954 15.2468C11.3257 15.1773 11.5499 15.1097 11.7656 15.0022C12.2406 14.692 12.6287 14.2654 12.8932 13.7627C13.2091 13.2023 13.4506 12.6029 13.6116 11.9798C13.7694 11.3751 13.8272 10.7487 13.7829 10.1253C13.7439 9.58038 13.5284 9.06313 13.1691 8.6522C12.9851 8.46906 12.7657 8.32553 12.5243 8.23044C12.283 8.13534 12.0248 8.09068 11.7656 8.09919C11.5331 8.09842 11.302 8.1338 11.0804 8.20407L11.0803 8.19458ZM22.0564 8.77434C22.2483 8.73447 22.4432 8.71077 22.6392 8.70348C22.8326 8.69861 23.025 8.73251 23.2048 8.80314C23.3846 8.87377 23.5481 8.97966 23.6854 9.11445C23.9698 9.42 24.1297 9.81877 24.1345 10.234C24.167 10.7606 24.1203 11.2891 23.996 11.8022C23.8625 12.3877 23.6672 12.9577 23.4131 13.5028C23.23 13.9071 22.9593 14.2667 22.6201 14.5562C22.4522 14.6935 22.2515 14.7862 22.0373 14.8254V16.5968C22.0868 16.5968 22.1457 16.6049 22.2053 16.6131C22.2663 16.6214 22.3281 16.6299 22.3812 16.6299C23.0811 16.6367 23.7704 16.4613 24.3801 16.1214C24.9897 15.7814 25.4981 15.2889 25.8543 14.6932C26.7752 13.3203 27.1606 11.6635 26.9388 10.0308C26.9299 9.1998 26.6119 8.40107 26.0454 7.78708C25.7617 7.52165 25.4268 7.31543 25.0607 7.18071C24.6947 7.04599 24.3049 6.98553 23.9147 7.00295C23.3556 6.99113 22.8013 7.10754 22.2952 7.34305C22.2194 7.38574 22.1394 7.42056 22.0564 7.44697V8.77434ZM22.0564 8.77434L22.0468 7.44697C21.6123 7.70726 21.2085 8.01463 20.8429 8.36338L20.9098 7.24385H18.3301C18.2632 7.86738 18.0912 8.82157 17.8141 10.0781L15.6118 19.9412H18.4782L19.5769 15.0805C19.8227 15.5627 20.2109 15.9598 20.6901 16.2189C21.1046 16.4386 21.5628 16.566 22.0325 16.5921V14.8207C21.8978 14.8626 21.758 14.8864 21.6168 14.8915C21.4045 14.9007 21.1928 14.8631 20.9969 14.7814C20.8011 14.6997 20.6261 14.576 20.4846 14.4192C20.164 14.0482 19.9818 13.5796 19.9687 13.0918C19.8451 12.0283 20.0748 10.9539 20.6232 10.0308C20.9225 9.44745 21.4348 8.9983 22.0564 8.77434Z" fill="#0054A4"/>
</svg>
