<svg width="64" height="64" viewBox="0 0 64 64" fill="none" xmlns="http://www.w3.org/2000/svg">
<g clip-path="url(#clip0_4550_33)">
<path d="M50 0H14C6.26801 0 0 6.26801 0 14V50C0 57.732 6.26801 64 14 64H50C57.732 64 64 57.732 64 50V14C64 6.26801 57.732 0 50 0Z" fill="#F94C43" style="fill:#F94C43;fill:color(display-p3 0.9765 0.2980 0.2627);fill-opacity:1;"/>
<g clip-path="url(#clip1_4550_33)">
<path d="M42.8495 14.95C43.0502 14.75 43.0502 14.35 42.8495 14.15C42.7491 14.05 42.5986 14 42.4481 14H34.0692L38.936 18.85L42.8495 14.95ZM31.1592 26.65L25.1384 20.65L19.7699 26.05L14.1505 31.6C13.9498 31.8 13.9498 32.2 14.1505 32.4L19.7699 38L25.1384 43.35L31.109 37.4L26.0917 32.4L25.7405 32L26.1419 31.6L31.1592 26.65ZM38.936 45.15L34.0692 50H42.3979C42.699 50 42.9498 49.75 42.9498 49.45C42.9498 49.3 42.8997 49.15 42.7993 49.05L38.936 45.15Z" fill="white" style="fill:white;fill-opacity:1;"/>
<path d="M49.8495 31.6L44.2803 26.05L37.9585 19.75L32.3391 14.15C32.2388 14.05 32.1384 14 31.9879 14H21.5519C21.2509 14 21 14.25 21 14.55C21 14.7 21.0502 14.85 21.1505 14.95L25.9671 19.75L31.9879 25.75L37.9083 31.65L38.3097 32.05L37.9083 32.45L31.9879 38.3L25.9671 44.25L21.1505 49.05C20.9498 49.25 20.9498 49.65 21.1505 49.85C21.2509 49.95 21.4014 50 21.5519 50H31.9879C32.1384 50 32.2889 49.95 32.3893 49.85L37.9585 44.3L44.2803 38L49.8495 32.45C50.0502 32.2 50.0502 31.85 49.8495 31.6Z" fill="white" style="fill:white;fill-opacity:1;"/>
</g>
</g>
<defs>
<clipPath id="clip0_4550_33">
<rect width="64" height="64" rx="14" fill="white" style="fill:white;fill-opacity:1;"/>
</clipPath>
<clipPath id="clip1_4550_33">
<rect width="36" height="36" fill="white" style="fill:white;fill-opacity:1;" transform="translate(14 14)"/>
</clipPath>
</defs>
</svg>
