<svg width="64" height="64" viewBox="0 0 64 64" fill="none" xmlns="http://www.w3.org/2000/svg">
<g clip-path="url(#clip0_2250_360)">
<rect width="64" height="64" rx="14" fill="#0054A5" style="fill:#0054A5;fill:color(display-p3 0.0000 0.3294 0.6471);fill-opacity:1;"/>
<path fill-rule="evenodd" clip-rule="evenodd" d="M18.6762 30.3759H15.3882C15.3882 29.8327 15.3249 29.4684 15.1987 29.2828C15.0029 29.0081 14.463 28.8707 13.5792 28.8707C12.7207 28.8707 12.1518 28.9497 11.8741 29.108C11.5966 29.2668 11.4575 29.6121 11.4575 30.1437C11.4575 30.625 11.5807 30.9419 11.8273 31.0937C12.0038 31.2015 12.2373 31.2648 12.5282 31.2838L13.1913 31.3309C14.6123 31.4259 15.4998 31.4927 15.8538 31.5309C16.9778 31.6449 17.7923 31.9456 18.298 32.4333C18.6956 32.8136 18.9328 33.3107 19.0086 33.9246C19.0528 34.2919 19.0749 34.7076 19.0749 35.1693C19.0749 36.2333 18.9739 37.0127 18.7721 37.5067C18.406 38.413 17.5836 38.9855 16.3039 39.2259C15.7678 39.3274 14.9478 39.3782 13.8448 39.3782C12.0033 39.3782 10.7202 39.2679 9.99568 39.0461C9.10641 38.7744 8.52015 38.2242 8.23642 37.3954C8.07838 36.934 8 36.1657 8 35.09H11.2878C11.2878 35.21 11.2883 35.3016 11.2883 35.3648C11.2883 35.9389 11.4521 36.3079 11.7793 36.4725C12.006 36.5858 12.2797 36.6453 12.6014 36.6524H13.8102C14.4269 36.6524 14.8207 36.6205 14.9904 36.5566C15.2927 36.437 15.4911 36.2446 15.5859 35.978C15.6362 35.8138 15.6611 35.6015 15.6611 35.3417C15.6611 34.7597 15.4501 34.4056 15.0286 34.2786C14.871 34.2284 14.1381 34.1584 12.8295 34.0698C11.7785 33.9942 11.0486 33.9216 10.6399 33.8512C9.56347 33.6486 8.8461 33.2317 8.48813 32.5988C8.17333 32.0611 8.01609 31.2475 8.01609 30.1592C8.01609 29.3304 8.101 28.6659 8.27115 28.166C8.44129 27.6661 8.71546 27.2863 9.09382 27.0269C9.64806 26.6282 10.3572 26.3942 11.2205 26.3243C11.9389 26.2612 12.7358 26.229 13.6123 26.229C14.9923 26.229 15.9757 26.309 16.562 26.4672C17.9927 26.8543 18.7079 27.9382 18.7079 29.7193C18.7079 29.8654 18.6973 30.084 18.6762 30.3759Z" fill="white" style="fill:white;fill-opacity:1;"/>
<path fill-rule="evenodd" clip-rule="evenodd" d="M36.5463 32.809H38.7496C39.4482 32.7836 39.8731 32.7294 40.026 32.6449C40.2348 32.5293 40.375 32.2977 40.4448 31.9507C40.4894 31.7196 40.5117 31.3759 40.5117 30.9196C40.5117 30.3604 40.4674 29.946 40.3784 29.6755C40.2513 29.2963 39.9468 29.0654 39.4646 28.9815C39.3693 28.9689 39.141 28.9621 38.7794 28.9621H36.5463V32.809ZM33.0122 39.2883V26.0693H38.1632H38.9717H39.5966C40.4998 26.0693 41.189 26.1436 41.6624 26.2919C42.7454 26.6335 43.472 27.3329 43.8443 28.3899C44.0363 28.9446 44.1324 29.7799 44.1324 30.8951C44.1324 32.236 44.0258 33.1996 43.815 33.7863C43.3927 34.9464 42.5235 35.6147 41.2106 35.7879C41.0564 35.8139 40.3996 35.8371 39.2401 35.8557L38.6535 35.8754H36.5463V39.2883H33.0122Z" fill="white" style="fill:white;fill-opacity:1;"/>
<path fill-rule="evenodd" clip-rule="evenodd" d="M51.0437 34.4286L49.3877 28.6985L47.7809 34.4286H51.0437ZM51.7455 37.004H47.0203L46.3855 39.2885H42.729L46.6743 26.0693H52.0056L55.9994 39.2885H52.4198L51.7455 37.004Z" fill="white" style="fill:white;fill-opacity:1;"/>
<path fill-rule="evenodd" clip-rule="evenodd" d="M28.2801 27.7421C29.7377 27.7421 31.0386 28.4181 31.8939 29.4769L32.6557 27.8326C31.4641 26.6989 29.8426 26 28.0541 26C25.2693 26 22.887 27.693 21.9095 30.0896H20.4239L19.5468 31.9827H21.4578C21.4435 32.1583 21.4341 32.3341 21.4341 32.5134C21.4341 32.7303 21.4454 32.9448 21.4666 33.1566H20.5063L19.6293 35.0503H21.955C22.9604 37.3863 25.313 39.0262 28.0541 39.0262C29.4354 39.0262 30.7173 38.6096 31.7786 37.8978V35.5771C30.9239 36.5567 29.6738 37.1757 28.2801 37.1757C26.6509 37.1757 25.2179 36.33 24.3836 35.0503H29.2537L30.1308 33.1566H23.667C23.6337 32.9287 23.6158 32.6959 23.6158 32.4587C23.6158 32.2983 23.624 32.1395 23.6394 31.9827H30.6744L31.5514 30.0896H24.2477C25.0555 28.6864 26.5585 27.7421 28.2801 27.7421Z" fill="#FEC10E" style="fill:#FEC10E;fill:color(display-p3 0.9961 0.7569 0.0549);fill-opacity:1;"/>
</g>
<defs>
<clipPath id="clip0_2250_360">
<rect width="64" height="64" rx="14" fill="white" style="fill:white;fill-opacity:1;"/>
</clipPath>
</defs>
</svg>
