<svg width="64" height="64" viewBox="0 0 64 64" fill="none" xmlns="http://www.w3.org/2000/svg">
<g clip-path="url(#clip0_2572_321)">
<rect width="64" height="64" rx="14" fill="black" style="fill:black;fill-opacity:1;"/>
<g clip-path="url(#clip1_2572_321)">
<g clip-path="url(#clip2_2572_321)">
<path d="M57 44.8754C56.954 45.6788 56.5254 46.4131 55.8522 46.8494L33.6511 59.7259C33.0156 60.0914 31.9827 60.0914 31.3489 59.7259L9.14782 46.8494C8.51233 46.4839 8 45.6081 8 44.8754V19.1258C8.04434 18.3207 8.468 17.5881 9.14782 17.1502L31.3489 4.27536C31.9827 3.90821 33.0156 3.90821 33.6511 4.27536L55.8522 17.1502C56.486 17.5107 57 18.3915 57 19.1258V44.8754Z" fill="white" style="fill:white;fill-opacity:1;"/>
<path d="M44.0816 32.0582L38.2752 40.5931L35.3129 36.0392L38.7317 30.9074C39.3672 29.9936 40.7268 27.473 39.1554 24.0452C37.8844 21.248 35.1257 19.9161 32.7085 19.9161C30.2897 19.9161 27.6607 21.1575 26.2354 24.0452C24.6327 27.3578 26.0236 29.936 26.6279 30.8168L30.1107 35.9816L32.6822 39.7172L36.551 45.6673C36.5822 45.6986 37.1849 46.637 38.2752 46.637C39.3015 46.637 39.937 45.6986 40.0339 45.608L49.1032 32.1224H44.0816V32.0582ZM32.6822 32.2706L30.1682 28.3538C29.1091 26.6235 30.2897 24.0452 32.6822 24.0452C35.0682 24.0452 36.2489 26.6235 35.1914 28.3538L32.6822 32.2706Z" fill="url(#paint0_radial_2572_321)" style=""/>
<path d="M27.1156 40.3215L21.4257 32.3019L18.9166 28.3851C17.8591 26.6564 19.0398 24.0699 21.4257 24.0699C21.7262 24.0699 22.0021 24.1028 22.2714 24.1934L24.2731 20.5203C23.3618 20.1219 22.3683 19.9095 21.4569 19.9095C19.0398 19.9095 16.4026 21.1575 14.9855 24.0452C13.3811 27.3512 14.7736 29.936 15.3763 30.8168L25.3323 45.608C25.4209 45.7249 26.0564 46.67 27.1156 46.67C28.1731 46.67 28.7757 45.7562 28.8726 45.6344L31.8612 41.0492L29.2963 37.2542L27.1156 40.3215Z" fill="url(#paint1_radial_2572_321)" style=""/>
</g>
</g>
</g>
<defs>
<radialGradient id="paint0_radial_2572_321" cx="0" cy="0" r="1" gradientUnits="userSpaceOnUse" gradientTransform="translate(30.7922 22.2548) scale(26.7522 30.277)">
<stop stop-color="#FFCC00" style="stop-color:#FFCC00;stop-color:color(display-p3 1.0000 0.8000 0.0000);stop-opacity:1;"/>
<stop offset="0.09157" stop-color="#FFC800" style="stop-color:#FFC800;stop-color:color(display-p3 1.0000 0.7843 0.0000);stop-opacity:1;"/>
<stop offset="0.1739" stop-color="#FFBD00" style="stop-color:#FFBD00;stop-color:color(display-p3 1.0000 0.7412 0.0000);stop-opacity:1;"/>
<stop offset="0.2528" stop-color="#FFAB00" style="stop-color:#FFAB00;stop-color:color(display-p3 1.0000 0.6706 0.0000);stop-opacity:1;"/>
<stop offset="0.3295" stop-color="#FF9100" style="stop-color:#FF9100;stop-color:color(display-p3 1.0000 0.5686 0.0000);stop-opacity:1;"/>
<stop offset="0.4046" stop-color="#FF7000" style="stop-color:#FF7000;stop-color:color(display-p3 1.0000 0.4392 0.0000);stop-opacity:1;"/>
<stop offset="0.4786" stop-color="#FF4700" style="stop-color:#FF4700;stop-color:color(display-p3 1.0000 0.2784 0.0000);stop-opacity:1;"/>
<stop offset="0.5503" stop-color="#FF1800" style="stop-color:#FF1800;stop-color:color(display-p3 1.0000 0.0941 0.0000);stop-opacity:1;"/>
<stop offset="0.5822" stop-color="#FF0000" style="stop-color:#FF0000;stop-color:color(display-p3 1.0000 0.0000 0.0000);stop-opacity:1;"/>
<stop offset="1" stop-color="#FF0000" style="stop-color:#FF0000;stop-color:color(display-p3 1.0000 0.0000 0.0000);stop-opacity:1;"/>
</radialGradient>
<radialGradient id="paint1_radial_2572_321" cx="0" cy="0" r="1" gradientUnits="userSpaceOnUse" gradientTransform="translate(14.6676 23.7988) scale(24.5301 37.2387)">
<stop stop-color="#00B4E6" style="stop-color:#00B4E6;stop-color:color(display-p3 0.0000 0.7059 0.9020);stop-opacity:1;"/>
<stop offset="0.201" stop-color="#00B0E3" style="stop-color:#00B0E3;stop-color:color(display-p3 0.0000 0.6902 0.8902);stop-opacity:1;"/>
<stop offset="0.3898" stop-color="#01A5DB" style="stop-color:#01A5DB;stop-color:color(display-p3 0.0039 0.6471 0.8588);stop-opacity:1;"/>
<stop offset="0.5737" stop-color="#0292CD" style="stop-color:#0292CD;stop-color:color(display-p3 0.0078 0.5725 0.8039);stop-opacity:1;"/>
<stop offset="0.7546" stop-color="#0377BA" style="stop-color:#0377BA;stop-color:color(display-p3 0.0118 0.4667 0.7294);stop-opacity:1;"/>
<stop offset="0.9316" stop-color="#0455A1" style="stop-color:#0455A1;stop-color:color(display-p3 0.0157 0.3333 0.6314);stop-opacity:1;"/>
<stop offset="1" stop-color="#054696" style="stop-color:#054696;stop-color:color(display-p3 0.0196 0.2745 0.5882);stop-opacity:1;"/>
</radialGradient>
<clipPath id="clip0_2572_321">
<rect width="64" height="64" rx="14" fill="white" style="fill:white;fill-opacity:1;"/>
</clipPath>
<clipPath id="clip1_2572_321">
<rect width="49" height="56" fill="white" style="fill:white;fill-opacity:1;" transform="translate(8 4)"/>
</clipPath>
<clipPath id="clip2_2572_321">
<rect width="49" height="56" fill="white" style="fill:white;fill-opacity:1;" transform="translate(8 4)"/>
</clipPath>
</defs>
</svg>
