<svg width="100%" height="100%" viewBox="0 0 1240 1097" version="1.1" xmlns="http://www.w3.org/2000/svg" xmlns:xlink="http://www.w3.org/1999/xlink" xml:space="preserve" xmlns:serif="http://www.serif.com/" style="fill-rule:evenodd;clip-rule:evenodd;stroke-linejoin:round;stroke-miterlimit:2;"><g id="logo"><g id="arc"><path d="M1182.67,1082.21c-6.429,-1.18 -14.805,-3.632 -21.44,-6.276c-12.913,-5.145 -32.103,-15.268 -46.746,-24.659c-20.255,-12.99 -50.992,-36.477 -73.104,-55.863c-3.29,-2.885 -8.358,-7.301 -11.261,-9.814c-2.902,-2.513 -7.423,-6.55 -10.045,-8.971c-2.623,-2.422 -7.855,-7.232 -11.627,-10.689c-26.05,-23.878 -75.652,-73.851 -99.043,-99.785c-2.859,-3.17 -8.417,-9.257 -12.35,-13.527c-13.04,-14.153 -17.403,-19.275 -17.281,-20.287c0.108,-0.894 0.522,-0.961 6.64,-1.086l6.524,-0.132l1.778,1.561c0.978,0.858 4.794,4.995 8.481,9.192c6.44,7.331 10.539,11.791 18.405,20.028c2.004,2.098 5.976,6.39 8.828,9.537c11.619,12.822 48.028,49.61 63.062,63.717c3.736,3.506 9.54,8.95 12.895,12.097c37.558,35.222 80.989,69.119 111.932,87.361c16.318,9.62 23.214,12.884 36.934,17.485c11.114,3.726 16.434,4.781 24.08,4.774c5.264,-0.008 6.786,-0.187 10.09,-1.206c10.953,-3.377 17.234,-10.471 20.633,-23.301c3.796,-14.331 3.018,-31.528 -2.609,-57.678c-6.795,-31.578 -23.443,-77.615 -43.716,-120.892c-2.212,-4.72 -5.822,-12.445 -8.023,-17.165c-4.545,-9.747 -21.466,-43.465 -25.245,-50.305c-1.376,-2.491 -4.648,-8.499 -7.272,-13.351c-8.798,-16.272 -18.711,-33.913 -27.062,-48.159c-14.167,-24.167 -19.474,-33.054 -21.216,-35.523c-3.073,-4.358 -4.159,-6.82 -4.416,-10.013c-0.18,-2.246 -0.066,-3.026 0.516,-3.509c1.645,-1.365 1.636,-1.379 20.235,29.734c5.965,9.98 19.057,32.733 27.023,46.967c2.568,4.589 5.366,9.524 6.217,10.967c0.85,1.442 3.643,6.592 6.204,11.443c2.562,4.852 6.211,11.718 8.109,15.259c48.522,90.491 80.415,170.506 87.739,220.119c2.287,15.497 2.623,29.728 0.962,40.79c-0.837,5.582 -2.008,9.178 -4.793,14.723c-1.725,3.434 -2.859,4.925 -6.209,8.165c-7.078,6.846 -12.987,9.008 -24.392,8.928c-3.319,-0.024 -7.512,-0.313 -9.437,-0.656Z" style="fill:#626f70;"/><path d="M588.063,443.903c-0.708,-1.145 -1.96,-3.14 -2.782,-4.434c-0.823,-1.294 -3.534,-5.847 -6.026,-10.118c-7.15,-12.257 -21.519,-36.069 -22.399,-37.119c-0.439,-0.524 -2.126,-3.259 -3.749,-6.077l-2.951,-5.124l0.126,-15.818l0.126,-15.818l3.062,5.684c1.685,3.126 5.295,9.725 8.023,14.664c2.728,4.94 5.882,10.733 7.009,12.874c2.031,3.859 8.439,14.924 13.163,22.728c1.349,2.229 3.773,6.308 5.386,9.063c1.613,2.756 3.637,6.024 4.498,7.261c2.074,2.981 6.43,10.487 6.448,11.108c0.011,0.428 -7.269,11.69 -8.273,12.795c-0.202,0.223 -0.925,-0.496 -1.661,-1.669Z" style="fill:#626f70;"/><path d="M802.601,314.172c-1.073,-1.125 -4.059,-4.513 -6.635,-7.529c-2.577,-3.016 -7.088,-8.166 -10.026,-11.444c-2.937,-3.278 -9.652,-10.788 -14.923,-16.688c-18.819,-21.07 -29.091,-32.124 -51.383,-55.296c-16.983,-17.653 -51.487,-51.616 -56.828,-55.938c-1.043,-0.844 -4.982,-4.431 -8.753,-7.972c-3.771,-3.54 -10.698,-9.763 -15.393,-13.828c-4.695,-4.064 -10.487,-9.081 -12.871,-11.147c-4.014,-3.479 -14.043,-11.639 -25.04,-20.373c-24.496,-19.456 -56.664,-40.02 -74.187,-47.425c-24.39,-10.308 -40.852,-12.41 -52.363,-6.685c-7.905,3.931 -13.5,11.43 -16.311,21.861c-2.065,7.664 -2.75,26.237 -1.235,33.491c0.274,1.312 0.965,5.995 1.535,10.409c0.907,7.012 0.951,8.111 0.346,8.716c-0.744,0.743 -18.602,8.297 -19.587,8.285c-1.326,-0.016 -1.934,-1.092 -4.464,-7.899c-4.963,-13.35 -7.769,-22.212 -9.019,-28.493c-0.688,-3.452 -1.55,-7.349 -1.915,-8.66c-0.634,-2.273 -2.261,-13.101 -3.115,-20.742c-0.22,-1.967 -0.429,-8.726 -0.464,-15.02c-0.057,-10.093 0.057,-12.006 0.966,-16.212c2.517,-11.648 6.159,-18.437 12.67,-23.618c6.117,-4.867 11.937,-6.638 21.859,-6.651c9.197,-0.013 15.793,1.285 26.8,5.273c31.003,11.233 67.392,34.36 109.821,69.796c5.353,4.47 11.052,9.2 12.665,10.512c1.613,1.311 6.745,5.817 11.404,10.013c4.659,4.196 9.271,8.273 10.248,9.06c2.853,2.295 29.287,27.143 41.765,39.256c6.302,6.119 16.58,16.418 22.841,22.888c6.26,6.469 12.188,12.514 13.173,13.432c0.985,0.918 5.723,5.853 10.528,10.967c4.805,5.113 11.77,12.516 15.478,16.45c3.708,3.934 9.834,10.578 13.613,14.766c3.78,4.187 8.481,9.341 10.448,11.453c3.381,3.631 13.116,14.583 20.96,23.582c1.956,2.244 5.389,6.126 7.629,8.626c3.924,4.381 11.46,13.151 22.819,26.557c3.236,3.819 5.334,6.693 5.24,7.182c-0.124,0.65 -0.778,0.842 -3.25,0.952c-3.067,0.137 -3.098,0.136 -5.046,-1.907Z" style="fill:#626f70;"/></g><g id="sia"><path d="M190.408,805.367c-51.817,-3.657 -97.586,-20.004 -143.404,-51.219c-2.688,-1.831 -7.429,-5.265 -10.535,-7.629c-3.107,-2.365 -6.119,-4.622 -6.694,-5.015c-1.058,-0.723 -13.025,-10.742 -16.983,-14.218l-2.146,-1.885l4.286,-4.465c5.041,-5.253 15.403,-15.973 18.125,-18.753c1.049,-1.071 7.164,-7.413 13.589,-14.093c6.425,-6.679 14.886,-15.471 18.802,-19.538c3.916,-4.066 7.483,-7.789 7.927,-8.273c0.773,-0.843 1.122,-0.564 8.377,6.702c17.357,17.383 34.988,29.827 58.699,41.428c5.043,2.467 9.399,4.486 9.679,4.486c0.281,0 1.197,0.355 2.037,0.79c5.138,2.662 24.314,8.577 32.28,9.958c2.492,0.432 6.354,1.099 8.583,1.483c5.511,0.948 25.718,1.393 31.786,0.699c12.606,-1.441 24.965,-4.744 34.072,-9.106c8.108,-3.884 12.98,-7.06 19.773,-12.892c10.953,-9.402 17.106,-19.387 18.318,-29.727c1.285,-10.952 -1.199,-22.094 -6.831,-30.642c-1.221,-1.855 -4.107,-5.19 -6.413,-7.413c-5.993,-5.777 -11.719,-9.334 -21.566,-13.396c-5.796,-2.391 -13.477,-4.38 -28.132,-7.283c-4.852,-0.961 -12.898,-2.572 -17.881,-3.579c-4.983,-1.007 -12.922,-2.599 -17.642,-3.537c-20.424,-4.059 -36.454,-7.642 -46.252,-10.339c-17.413,-4.793 -33.913,-10.323 -44.344,-14.863c-2.098,-0.913 -5.317,-2.314 -7.153,-3.113c-6.597,-2.87 -15.979,-8.135 -23.364,-13.11c-10.079,-6.791 -20.413,-17.035 -26.774,-26.54c-7.3,-10.908 -10.673,-18.721 -14.928,-34.569c-2.565,-9.556 -3.427,-31.986 -1.768,-46.013c1.814,-15.348 7.552,-33.754 14.494,-46.49c4.592,-8.428 6.342,-11.16 11.758,-18.358c15.964,-21.217 37.998,-38.784 60.847,-48.511c14.949,-6.364 31.045,-10.946 44.821,-12.76c3.279,-0.431 8.428,-1.105 11.444,-1.498c7.421,-0.966 33.499,-1.403 42.199,-0.707c27.54,2.204 48.55,6.715 73.43,15.764c8.657,3.149 26.67,11.573 36.954,17.282c4.755,2.64 9.025,5.141 12.874,7.542c2.229,1.39 4.482,2.764 5.007,3.052c3.263,1.795 25.527,17.261 27.035,18.781c0.875,0.882 1.266,0.283 -6.765,10.353c-4.59,5.755 -8.953,11.289 -10.495,13.313c-0.918,1.204 -2.098,2.688 -2.623,3.299c-0.524,0.611 -3.528,4.387 -6.675,8.392c-3.147,4.005 -6.688,8.499 -7.868,9.987c-1.18,1.488 -3.54,4.499 -5.245,6.692c-1.705,2.192 -3.85,4.89 -4.768,5.995c-0.918,1.104 -2.94,3.649 -4.492,5.655c-1.553,2.006 -2.975,3.647 -3.161,3.647c-0.186,0 -2.992,-2.28 -6.236,-5.067c-4.996,-4.291 -15.26,-12.242 -19.489,-15.096c-15.901,-10.731 -26.833,-16.286 -42.675,-21.687c-11.428,-3.895 -24.09,-6.82 -35.511,-8.204c-5.952,-0.72 -22.751,-0.595 -28.383,0.212c-21.321,3.056 -38.28,10.449 -50.184,21.877c-8.643,8.298 -13.271,17.898 -14.37,29.809c-0.808,8.753 1.187,18.395 5.121,24.762c2.228,3.605 7.638,9.728 10.028,11.348c0.947,0.643 2.581,1.8 3.63,2.572c5.072,3.731 19.939,9.91 27.894,11.593c1.705,0.361 5.674,1.213 8.821,1.893c5.261,1.138 9.806,2.081 32.901,6.827c4.458,0.916 11.646,2.393 15.973,3.282c4.327,0.889 11.73,2.402 16.451,3.362c4.72,0.96 11.479,2.372 15.02,3.137c3.54,0.766 8.153,1.695 10.251,2.064c18.077,3.181 44.589,11.63 56.027,17.854c0.393,0.214 2.213,1.197 4.044,2.184c30.398,16.391 49.094,40.904 55.511,72.781c2.218,11.017 2.6,15.076 2.602,27.61c0.001,8.927 -0.199,12.919 -0.847,16.927c-5.29,32.68 -17.428,57.807 -39.276,81.308c-17.217,18.519 -37.309,31.313 -64.71,41.204c-17.532,6.328 -37.203,10.108 -61.033,11.728c-7.68,0.522 -26.161,0.497 -33.854,-0.047l0,0.001Z" style="fill:#fff;"/><path d="M436.209,568.418l0,-237.457l94.411,0l0,474.914l-47.206,0l-47.205,0l0,-237.457Z" style="fill:#fff;"/><path d="M476.5,282.289c-1.311,-0.22 -4.517,-1.058 -7.124,-1.861c-15.717,-4.842 -28.003,-17.894 -31.794,-33.774c-6.602,-27.658 11.989,-54.387 40.349,-58.011c5.387,-0.688 6.089,-0.677 11.999,0.196c19.127,2.825 33.96,15.988 39.107,34.705c1.118,4.066 1.285,5.576 1.308,11.814c0.025,6.681 -0.075,7.507 -1.518,12.529c-3.782,13.173 -11.376,22.646 -23.479,29.293c-3.554,1.952 -10.884,4.402 -15.323,5.122c-3.521,0.572 -10.09,0.565 -13.525,-0.013l0,0Z" style="fill:#fff;"/><path d="M800.421,805.349c-8.937,-0.688 -24.741,-2.829 -31.629,-4.285c-15.7,-3.318 -31.608,-8.237 -43.868,-13.566c-2.098,-0.911 -3.987,-1.656 -4.198,-1.654c-0.691,0.008 -16.549,-8.066 -22.213,-11.308c-23.766,-13.605 -44.963,-31.217 -63.006,-52.349c-4.539,-5.316 -7.497,-8.949 -8.569,-10.527c-0.394,-0.578 -2.157,-3.059 -3.918,-5.511c-5.001,-6.963 -9.433,-13.651 -9.433,-14.233c0,-0.192 -0.397,-0.861 -0.882,-1.487c-2.424,-3.125 -9.533,-16.88 -14.511,-28.077c-8.991,-20.221 -15.445,-45.327 -18.512,-72c-0.707,-6.157 -0.7,-37.538 0.01,-43.868c3.581,-31.903 10.865,-57.294 24.076,-83.92c3.367,-6.786 4.185,-8.308 8.068,-15.02c2.818,-4.87 9.961,-15.531 13.862,-20.687c1.862,-2.462 3.804,-5.037 4.317,-5.722c5.176,-6.925 18.971,-21.62 27.439,-29.23c4.418,-3.969 13.933,-11.725 18.694,-15.237c3.977,-2.933 15.106,-10.33 18.26,-12.136c17.372,-9.95 30.541,-15.989 46.543,-21.347c12.955,-4.338 28.779,-8.138 40,-9.605c3.278,-0.429 8.427,-1.099 11.443,-1.489c3.07,-0.397 11.621,-0.83 19.426,-0.983c14.097,-0.277 21.647,0.086 32.786,1.575c2.885,0.385 6.921,0.899 8.969,1.14c10.933,1.292 35.499,7.826 46.542,12.38c1.929,0.796 3.693,1.447 3.918,1.447c0.374,0 5.005,1.995 11.856,5.107c18.19,8.262 36.939,20.23 53.848,34.371c3.127,2.615 14.649,13.416 17.732,16.623c25.22,26.229 44.919,59.485 55.455,93.621c4.297,13.921 7.993,30.787 8.913,40.675c0.249,2.673 0.701,6.577 1.004,8.675c0.402,2.786 0.594,38.242 0.711,131.484l0.16,127.669l-124.103,-0.068c-68.257,-0.037 -126.393,-0.243 -129.19,-0.458l0,0Zm158.861,-166.976c0,-85.406 0.034,-84.54 -3.966,-101.902c-3.678,-15.96 -11.234,-33.242 -20.724,-47.395c-11.936,-17.802 -29.839,-34.592 -47.876,-44.901c-4.295,-2.455 -16.508,-8.268 -19.937,-9.49c-11.94,-4.255 -19.148,-6.142 -29.586,-7.746c-7.465,-1.147 -9.622,-1.278 -20.957,-1.274c-11.271,0.005 -13.538,0.142 -20.981,1.277c-19.805,3.018 -38.369,9.878 -54.834,20.261c-17.604,11.101 -31.964,25.242 -44.265,43.591c-1.355,2.02 -2.463,3.869 -2.463,4.108c0,0.238 -0.397,0.945 -0.881,1.571c-0.97,1.253 -5.846,10.624 -7.668,14.736c-4.134,9.333 -7.71,21.346 -9.574,32.161c-3.18,18.452 -3.221,30.605 -0.163,48.889c1.272,7.604 4.444,19.572 6.584,24.838c0.666,1.64 1.211,3.147 1.211,3.349c0,0.434 3.218,7.382 5.606,12.104c11.065,21.877 28.96,41.652 49.944,55.189c21.372,13.788 44.548,21.446 70.808,23.399c1.18,0.088 35.35,0.197 75.934,0.243l73.788,0.083l0,-73.091Z" style="fill:#fff;"/></g><g id="with"><path d="M228.219,273.299c-7.714,-2.467 -13.497,-8.77 -15.382,-16.767c-0.585,-2.483 -0.721,-7.046 -0.727,-24.392l-0.007,-21.338l-5.483,0l-5.483,0l0,-9.06l0,-9.059l10.966,0l0,-10.967l0,-10.967l21.457,0l0,21.934l17.166,0l0,18.119l-8.583,0l-8.583,0l0,19.21c0,18.975 0.014,19.236 1.073,21.334c0.59,1.168 1.802,2.608 2.693,3.2c2.272,1.51 6.242,1.481 9.3,-0.067c1.512,-0.766 2.323,-0.963 2.453,-0.596c0.107,0.301 1.278,3.513 2.602,7.137l2.408,6.588l-1.085,0.905c-1.946,1.622 -7.219,4.177 -10.214,4.95c-4.008,1.034 -11.072,0.954 -14.571,-0.164l0,0Z" style="fill:#626f70;"/><path d="M41.391,232.864l-13.588,-39.943l10.684,-0.128c5.876,-0.071 10.774,-0.038 10.884,0.072c0.11,0.11 3.542,11.218 7.627,24.684c4.084,13.467 7.559,24.638 7.722,24.824c0.162,0.187 3.841,-10.863 8.174,-24.556l7.878,-24.896l18.523,0l7.874,24.904c4.33,13.697 8.006,24.747 8.168,24.556c0.162,-0.191 3.252,-10.11 6.866,-22.043c3.615,-11.932 6.984,-23.036 7.487,-24.675l0.915,-2.98l21.736,0l-13.629,40.06l-13.629,40.061l-9.991,-0.127l-9.991,-0.127l-7.403,-25.122c-4.072,-13.818 -7.514,-25.012 -7.651,-24.877c-0.137,0.135 -3.589,11.44 -7.672,25.123l-7.424,24.876l-9.986,0.129l-9.987,0.128l-13.587,-39.943Z" style="fill:#626f70;"/><path d="M164.898,232.736l0,-40.053l22.41,0l0,80.106l-11.205,0l-11.205,0l0,-40.053Z" style="fill:#626f70;"/><path d="M268.845,218.67l0,-54.12l21.934,0l0,18.835c0,10.359 0.178,18.834 0.397,18.834c0.218,0 1.105,-0.881 1.97,-1.958c2.084,-2.593 7.632,-6.165 11.734,-7.554c4.526,-1.533 13.38,-1.906 17.846,-0.751c10.045,2.596 17.697,10.158 20.794,20.548c0.756,2.536 0.861,5.788 1.015,31.556l0.173,28.729l-10.733,0l-10.733,0l-0.139,-25.391c-0.139,-25.317 -0.142,-25.399 -1.248,-28.138c-1.529,-3.786 -4.808,-7.061 -8.445,-8.432c-2.331,-0.879 -3.531,-1.036 -6.658,-0.872c-6.689,0.352 -11.446,3.319 -14.162,8.834l-1.573,3.195l-0.142,25.402l-0.143,25.402l-10.944,0l-10.943,0l0,-54.119Z" style="fill:#626f70;"/><path d="M170.589,179.928c-7.254,-3.679 -8.815,-12.905 -3.166,-18.722c7.591,-7.817 20.341,-2.583 20.341,8.351c0,8.941 -9.127,14.452 -17.175,10.371Z" style="fill:#626f70;"/></g><g id="built"><path d="M157.745,133.762c-10.099,-2.64 -17.85,-10.574 -20.516,-20.999c-0.884,-3.455 -0.94,-5.37 -0.94,-31.733l0,-28.056l21.456,0l0,24.941c0,24.033 0.037,25.047 0.996,27.889c1.21,3.583 4.138,7.015 7.41,8.686c1.993,1.017 2.967,1.186 6.853,1.186c3.966,0 4.893,-0.168 7.446,-1.348c5.068,-2.342 8.367,-6.64 9.254,-12.058c0.253,-1.543 0.461,-13.266 0.463,-26.051l0.003,-23.245l21.933,0l0,80.106l-10.967,0l-10.966,0l0,-5.007c0,-2.753 -0.06,-5.006 -0.134,-5.006c-0.073,0 -1.736,1.557 -3.695,3.461c-5.835,5.669 -11.99,8.007 -20.934,7.951c-2.771,-0.017 -6.219,-0.34 -7.661,-0.717l-0.001,0Z" style="fill:#626f70;"/><path d="M337.887,133.59c-7.714,-2.467 -13.496,-8.77 -15.381,-16.766c-0.585,-2.484 -0.721,-7.047 -0.727,-24.393l-0.007,-21.338l-5.483,0l-5.484,0l0,-9.059l0,-9.06l10.967,0l0,-10.967l0,-10.967l21.457,0l0,21.934l17.166,0l0,18.119l-8.583,0l-8.583,0l0,19.211c0,18.974 0.013,19.236 1.073,21.333c0.59,1.168 1.802,2.609 2.693,3.201c2.272,1.509 6.241,1.481 9.299,-0.068c1.513,-0.766 2.324,-0.963 2.454,-0.596c0.107,0.302 1.278,3.513 2.602,7.137l2.408,6.589l-1.086,0.905c-1.945,1.622 -7.218,4.177 -10.214,4.95c-4.007,1.033 -11.071,0.954 -14.57,-0.165l-0.001,0Z" style="fill:#626f70;"/><path d="M232.13,93.027l0,-40.053l22.41,0l0,80.106l-11.205,0l-11.205,0l0,-40.053Z" style="fill:#626f70;"/><path d="M274.09,78.961l0,-54.119l22.41,0l0,108.238l-11.205,0l-11.205,0l0,-54.119Z" style="fill:#626f70;"/><path d="M237.821,40.219c-7.255,-3.679 -8.815,-12.905 -3.166,-18.722c7.591,-7.817 20.341,-2.582 20.341,8.351c0,8.919 -9.081,14.425 -17.175,10.371Z" style="fill:#626f70;"/><path d="M34.726,24.842l22.41,0l0,19.549c0,10.753 0.055,19.55 0.121,19.55c0.066,0 1.64,-1.448 3.497,-3.219c6.606,-6.298 12.303,-8.674 21.713,-9.056c7.485,-0.304 11.608,0.514 17.525,3.476c9.284,4.647 16.083,13.507 19.218,25.043c0.949,3.49 1.094,5.155 1.099,12.604c0.007,9.692 -0.8,14.022 -3.849,20.665c-4.731,10.309 -14.196,18.24 -24.277,20.344c-3.017,0.629 -11.844,0.882 -14.305,0.403c-7.536,-1.569 -13.923,-5.083 -18.333,-10.086l-2.395,-2.717l-0.014,11.682l-22.41,0l0,-108.238Zm48.968,90.356c7.365,-2.187 12.81,-8.133 14.668,-16.017c2.992,-12.692 -3.365,-24.968 -14.668,-28.325c-3.024,-0.898 -8.937,-0.917 -11.833,-0.038c-6.25,1.897 -10.728,6.191 -13.326,12.776c-1.426,3.614 -1.8,11.911 -0.726,16.095c1.965,7.655 6.643,13.045 13.285,15.309c3.14,1.07 9.338,1.169 12.6,0.2l0,0Z" style="fill:#626f70;"/></g></g></svg>
